<svg width="142" height="33" viewBox="0 0 142 33" fill="none" xmlns="http://www.w3.org/2000/svg">
<path d="M25.9299 32.8495H6.06689C2.72929 32.8495 0 30.1202 0 26.7826V6.91967C0 3.58207 2.72929 0.852783 6.06689 0.852783H25.9331C29.2675 0.852783 32 3.58207 32 6.91967V26.7859C32 30.1202 29.2707 32.8528 25.9331 32.8528L25.9299 32.8495Z" fill="white"/>
<path d="M15.0879 24.1248V9.58057H9.69434V18.7313C9.69434 21.7078 12.1081 24.1248 15.0879 24.1248Z" fill="#007790"/>
<path d="M22.2987 24.1249H15.7666V17.5896C19.3742 17.5896 22.2987 20.5173 22.2987 24.1249Z" fill="#007790"/>
<path d="M40.9796 8.57959H37.333V24.8154H40.534H40.9796H47.3393V21.6112H40.9796V8.57959Z" fill="white"/>
<path d="M58.1421 13.081C57.2442 12.4954 56.1447 12.2026 54.8402 12.2026C53.8481 12.2026 52.96 12.3783 52.1825 12.7264C51.405 13.0744 50.7544 13.5461 50.2372 14.1382C49.7167 14.7302 49.3199 15.4036 49.0466 16.1518C48.7733 16.9 48.6367 17.684 48.6367 18.4972V18.9429C48.6367 19.7301 48.7733 20.4946 49.0466 21.246C49.3199 21.9942 49.72 22.6709 50.247 23.2694C50.774 23.8712 51.4343 24.3494 52.2248 24.704C53.0185 25.0586 53.9326 25.2375 54.9704 25.2375C56.0081 25.2375 56.8961 25.0586 57.6834 24.704C58.4706 24.3494 59.1212 23.8517 59.6417 23.2141C60.1589 22.5765 60.5103 21.8511 60.6859 21.0346H57.4166C57.267 21.4054 56.9872 21.7177 56.5708 21.9682C56.1545 22.2219 55.621 22.3456 54.9704 22.3456C54.2579 22.3456 53.6789 22.1959 53.2365 21.8999C52.7908 21.6039 52.4655 21.1842 52.2573 20.6442C52.1435 20.345 52.0622 20.0131 52.0101 19.6553H60.9071V18.4549C60.9071 17.3424 60.6697 16.3177 60.1947 15.3743C59.7198 14.4342 59.0334 13.6698 58.1388 13.0842L58.1421 13.081ZM52.2801 16.7536C52.5013 16.2136 52.8299 15.8005 53.2593 15.5207C53.6887 15.2377 54.2157 15.0978 54.837 15.0978C55.4583 15.0978 55.9528 15.2345 56.3594 15.5077C56.766 15.781 57.0751 16.1778 57.2833 16.6983C57.3939 16.9781 57.4752 17.2904 57.5272 17.6319H52.0361C52.0914 17.3099 52.1728 17.0171 52.2801 16.7536Z" fill="white"/>
<path d="M70.8354 12.9607C69.9831 12.6062 68.9324 12.4272 67.6898 12.4272C67.2604 12.4272 66.8017 12.4338 66.3105 12.45C65.8225 12.4663 65.3476 12.4858 64.8857 12.5183C64.427 12.5476 64.0269 12.5769 63.6853 12.6062V15.6087C64.144 15.5794 64.6547 15.5501 65.2207 15.5209C65.7835 15.4916 66.3333 15.4688 66.8667 15.4558C67.4002 15.4395 67.8296 15.433 68.1582 15.433C68.8121 15.433 69.2837 15.5892 69.583 15.9015C69.879 16.2138 70.0287 16.6789 70.0287 17.3035V17.3491H67.8264C66.7431 17.3491 65.7867 17.4857 64.9572 17.759C64.1277 18.0322 63.4803 18.4551 63.0217 19.0276C62.563 19.6002 62.332 20.3288 62.332 21.2169C62.332 22.0334 62.5175 22.7328 62.8883 23.3184C63.2591 23.9039 63.7731 24.3528 64.4335 24.6651C65.0938 24.9774 65.8616 25.1336 66.7366 25.1336C67.6117 25.1336 68.2981 24.9774 68.8836 24.6651C69.4692 24.3528 69.9278 23.9104 70.2629 23.3314C70.4125 23.0711 70.5329 22.7816 70.6305 22.4661V24.8213H73.4541V17.3491C73.4541 16.2235 73.2329 15.2997 72.7872 14.5807C72.3416 13.8618 71.6942 13.3251 70.8419 12.9672L70.8354 12.9607ZM68.8804 22.4466C68.5616 22.5864 68.2005 22.658 67.8004 22.658C67.179 22.658 66.7008 22.5051 66.3658 22.2026C66.0307 21.9001 65.8648 21.5032 65.8648 21.012C65.8648 20.4947 66.0307 20.0816 66.3658 19.7791C66.7008 19.4765 67.179 19.3237 67.8004 19.3237H70.0254V20.3028C69.9962 20.9111 69.8758 21.3861 69.6709 21.7276C69.4627 22.0692 69.1992 22.3099 68.8804 22.4498V22.4466Z" fill="white"/>
<path d="M80.3347 13.8723C79.7816 14.5782 79.4368 15.5085 79.3002 16.6601V12.6264H76.4766V24.8122H80.0354V18.6087C80.0354 17.6165 80.3021 16.8553 80.8356 16.3283C81.3691 15.8013 82.1271 15.5378 83.103 15.5378H83.991V12.4702H83.5226C82.1303 12.4702 81.0666 12.9386 80.3314 13.8723H80.3347Z" fill="white"/>
<path d="M92.9353 12.2488H92.7792C91.8456 12.2488 91.0518 12.457 90.4012 12.8701C89.7474 13.2865 89.2627 13.9078 88.9439 14.7373C88.8268 15.0399 88.7389 15.3814 88.6674 15.7393V12.6229H85.8438V24.8087H89.4026V17.7139C89.4026 17.0307 89.6075 16.481 90.0141 16.0581C90.4208 15.6352 90.9608 15.4237 91.6276 15.4237C92.2945 15.4237 92.7987 15.6319 93.1858 16.0451C93.5697 16.4614 93.7649 16.9949 93.7649 17.6455V24.8054H97.3237V17.844C97.3237 15.9605 96.9496 14.5552 96.2014 13.6281C95.4532 12.7009 94.3667 12.239 92.9419 12.239L92.9353 12.2488Z" fill="white"/>
<path d="M113.165 10.9371C112.44 10.1824 111.529 9.58055 110.442 9.13489C109.353 8.68922 108.074 8.46802 106.607 8.46802H100.892V24.9023H106.607C108.074 24.9023 109.353 24.6681 110.442 24.2029C111.532 23.7345 112.44 23.1196 113.165 22.3584C113.891 21.594 114.434 20.7352 114.789 19.7788C115.143 18.8224 115.322 17.8693 115.322 16.9226V16.4347C115.322 15.4262 115.143 14.4471 114.789 13.5004C114.434 12.5506 113.891 11.6983 113.165 10.9436V10.9371ZM112.222 18.9525C111.962 19.6584 111.581 20.2667 111.077 20.7872C110.573 21.3077 109.964 21.7111 109.252 22.0006C108.539 22.2901 107.733 22.4333 106.828 22.4333H103.559V10.9371H106.828C107.733 10.9371 108.539 11.0737 109.252 11.3502C109.964 11.6235 110.573 12.0138 111.077 12.518C111.581 13.0223 111.962 13.6241 112.222 14.3202C112.482 15.0164 112.612 15.8036 112.612 16.6787C112.612 17.4952 112.482 18.2531 112.222 18.959V18.9525Z" fill="white"/>
<path d="M126.474 13.273C125.615 12.7103 124.538 12.4272 123.25 12.4272C122.258 12.4272 121.386 12.6029 120.638 12.951C119.89 13.2991 119.272 13.7675 118.781 14.353C118.293 14.9386 117.925 15.5989 117.681 16.3309C117.437 17.0661 117.313 17.824 117.313 18.6112V19.0341C117.313 19.8051 117.437 20.5566 117.681 21.2917C117.925 22.0269 118.293 22.684 118.781 23.2696C119.269 23.8551 119.9 24.3268 120.671 24.6814C121.442 25.036 122.346 25.2149 123.384 25.2149C124.347 25.2149 125.209 25.0522 125.963 24.7269C126.718 24.4016 127.346 23.9332 127.844 23.3249C128.341 22.7166 128.67 22.0042 128.832 21.1909H126.409C126.289 21.6788 125.963 22.105 125.43 22.4693C124.896 22.8337 124.213 23.0158 123.384 23.0158C122.554 23.0158 121.871 22.8337 121.337 22.4693C120.804 22.105 120.41 21.6105 120.16 20.9794C119.971 20.5045 119.851 19.984 119.805 19.4115H129.057V18.3673C129.057 17.3296 128.842 16.3634 128.413 15.4656C127.983 14.5677 127.339 13.8391 126.477 13.2763L126.474 13.273ZM121.315 15.163C121.832 14.8085 122.479 14.6295 123.25 14.6295C124.021 14.6295 124.607 14.7889 125.095 15.1077C125.583 15.4265 125.954 15.8787 126.207 16.4642C126.36 16.8188 126.461 17.219 126.52 17.6549H119.874C119.935 17.2873 120.03 16.9457 120.157 16.6334C120.407 16.0121 120.794 15.5209 121.311 15.1663L121.315 15.163Z" fill="white"/>
<path d="M139.372 12.8271L136.658 22.7001H136.148L133.031 12.8271H130.318L134.235 24.8145H134.967H136.079H136.815H137.882H138.503L141.906 12.8271H139.372Z" fill="white"/>
</svg>
