<svg width="107" height="25" viewBox="0 0 107 25" fill="none" xmlns="http://www.w3.org/2000/svg">
<path d="M19.4474 24.3779H4.55017C2.04697 24.3779 0 22.331 0 19.8278V4.93054C0 2.42734 2.04697 0.380371 4.55017 0.380371H19.4498C21.9506 0.380371 24 2.42734 24 4.93054V19.8302C24 22.331 21.953 24.3804 19.4498 24.3804L19.4474 24.3779Z" fill="white"/>
<path d="M11.3156 17.8345V6.92627H7.27051V13.7893C7.27051 16.0217 9.08082 17.8345 11.3156 17.8345Z" fill="#007790"/>
<path d="M16.7242 17.8346H11.8252V12.9331C14.5309 12.9331 16.7242 15.1289 16.7242 17.8346Z" fill="#007790"/>
<path d="M30.735 6.17529H28V18.3522H30.4007H30.735H35.5047V15.949H30.735V6.17529Z" fill="white"/>
<path d="M43.6065 9.55131C42.9332 9.11216 42.1085 8.89258 41.1302 8.89258C40.386 8.89258 39.72 9.02432 39.1369 9.28538C38.5538 9.54644 38.0658 9.9002 37.6779 10.3442C37.2875 10.7883 36.9899 11.2933 36.7849 11.8545C36.58 12.4156 36.4775 13.0036 36.4775 13.6135V13.9478C36.4775 14.5382 36.58 15.1115 36.7849 15.6751C36.9899 16.2363 37.29 16.7438 37.6852 17.1927C38.0805 17.644 38.5757 18.0027 39.1686 18.2686C39.7639 18.5345 40.4495 18.6687 41.2278 18.6687C42.0061 18.6687 42.6721 18.5345 43.2625 18.2686C43.853 18.0027 44.3409 17.6294 44.7313 17.1512C45.1192 16.673 45.3827 16.1289 45.5144 15.5165H43.0625C42.9502 15.7947 42.7404 16.0289 42.4281 16.2168C42.1158 16.4071 41.7157 16.4998 41.2278 16.4998C40.6935 16.4998 40.2592 16.3875 39.9274 16.1655C39.5931 15.9435 39.3491 15.6288 39.193 15.2238C39.1076 14.9993 39.0466 14.7505 39.0076 14.4821H45.6803V13.5818C45.6803 12.7474 45.5022 11.9789 45.146 11.2714C44.7898 10.5663 44.275 9.99291 43.6041 9.55375L43.6065 9.55131ZM39.2101 12.3058C39.376 11.9008 39.6224 11.591 39.9444 11.3811C40.2665 11.1689 40.6617 11.064 41.1277 11.064C41.5937 11.064 41.9646 11.1664 42.2695 11.3714C42.5745 11.5763 42.8063 11.874 42.9624 12.2643C43.0454 12.4742 43.1064 12.7084 43.1454 12.9646H39.0271C39.0686 12.723 39.1296 12.5034 39.2101 12.3058Z" fill="white"/>
<path d="M53.1266 9.4614C52.4874 9.19547 51.6993 9.06128 50.7673 9.06128C50.4453 9.06128 50.1013 9.06616 49.7329 9.07836C49.3669 9.09056 49.0107 9.10519 48.6642 9.12959C48.3202 9.15155 48.0201 9.17351 47.764 9.19547V11.4474C48.108 11.4254 48.491 11.4035 48.9155 11.3815C49.3376 11.3595 49.7499 11.3425 50.1501 11.3327C50.5502 11.3205 50.8722 11.3156 51.1186 11.3156C51.609 11.3156 51.9628 11.4327 52.1873 11.667C52.4093 11.9012 52.5215 12.2501 52.5215 12.7185V12.7526H50.8698C50.0573 12.7526 49.3401 12.8551 48.7179 13.0601C48.0958 13.265 47.6103 13.5822 47.2663 14.0116C46.9222 14.441 46.749 14.9875 46.749 15.6535C46.749 16.2659 46.8881 16.7905 47.1662 17.2296C47.4444 17.6688 47.8298 18.0055 48.3251 18.2397C48.8204 18.4739 49.3962 18.591 50.0525 18.591C50.7088 18.591 51.2236 18.4739 51.6627 18.2397C52.1019 18.0055 52.4459 17.6737 52.6972 17.2394C52.8094 17.0442 52.8997 16.8271 52.9729 16.5904V18.3568H55.0906V12.7526C55.0906 11.9085 54.9247 11.2156 54.5904 10.6764C54.2562 10.1372 53.7707 9.73466 53.1315 9.46628L53.1266 9.4614ZM51.6603 16.5758C51.4212 16.6807 51.1504 16.7344 50.8503 16.7344C50.3843 16.7344 50.0256 16.6197 49.7743 16.3928C49.523 16.1659 49.3986 15.8682 49.3986 15.4998C49.3986 15.1119 49.523 14.8021 49.7743 14.5752C50.0256 14.3483 50.3843 14.2336 50.8503 14.2336H52.5191V14.968C52.4971 15.4242 52.4068 15.7804 52.2531 16.0366C52.097 16.2928 51.8994 16.4733 51.6603 16.5782V16.5758Z" fill="white"/>
<path d="M60.251 10.1448C59.8362 10.6742 59.5776 11.372 59.4751 12.2357V9.21037H57.3574V18.3497H60.0265V13.6971C60.0265 12.953 60.2266 12.3821 60.6267 11.9868C61.0268 11.5916 61.5953 11.394 62.3272 11.394H62.9933V9.09326H62.642C61.5977 9.09326 60.7999 9.44459 60.2485 10.1448H60.251Z" fill="white"/>
<path d="M69.7015 8.92749H69.5844C68.8842 8.92749 68.2889 9.08363 67.8009 9.39348C67.3105 9.70577 66.947 10.1718 66.7079 10.7939C66.6201 11.0208 66.5542 11.277 66.5005 11.5454V9.20806H64.3828V18.3474H67.0519V13.0263C67.0519 12.5139 67.2056 12.1016 67.5106 11.7845C67.8156 11.4673 68.2206 11.3087 68.7207 11.3087C69.2209 11.3087 69.599 11.4648 69.8894 11.7747C70.1773 12.087 70.3237 12.4871 70.3237 12.9751V18.345H72.9928V13.1239C72.9928 11.7113 72.7122 10.6573 72.151 9.96195C71.5899 9.26661 70.775 8.92017 69.7064 8.92017L69.7015 8.92749Z" fill="white"/>
<path d="M84.8742 7.94358C84.3301 7.37755 83.647 6.9262 82.8321 6.59195C82.0148 6.2577 81.056 6.0918 79.9556 6.0918H75.6689V18.4175H79.9556C81.056 18.4175 82.0148 18.2418 82.8321 17.893C83.6494 17.5416 84.3301 17.0805 84.8742 16.5096C85.4183 15.9363 85.8257 15.2922 86.0916 14.5749C86.3576 13.8576 86.4918 13.1427 86.4918 12.4328V12.0668C86.4918 11.3105 86.3576 10.5761 86.0916 9.86612C85.8257 9.15371 85.4183 8.51449 84.8742 7.94846V7.94358ZM84.1667 13.9552C83.9715 14.4846 83.686 14.9408 83.3079 15.3312C82.9297 15.7216 82.4735 16.0241 81.9392 16.2412C81.4048 16.4584 80.7998 16.5657 80.1215 16.5657H77.6696V7.94358H80.1215C80.7998 7.94358 81.4048 8.04605 81.9392 8.25343C82.4735 8.45837 82.9297 8.75114 83.3079 9.12931C83.686 9.50747 83.9715 9.95883 84.1667 10.4809C84.3618 11.0031 84.4594 11.5935 84.4594 12.2498C84.4594 12.8622 84.3618 13.4306 84.1667 13.96V13.9552Z" fill="white"/>
<path d="M94.8557 9.69562C94.2116 9.27354 93.4041 9.06128 92.4379 9.06128C91.6938 9.06128 91.0399 9.19303 90.4788 9.45408C89.9176 9.71514 89.4541 10.0665 89.0857 10.5056C88.7197 10.9448 88.444 11.4401 88.261 11.989C88.0781 12.5404 87.9854 13.1089 87.9854 13.6993V14.0164C87.9854 14.5947 88.0781 15.1583 88.261 15.7096C88.444 16.261 88.7197 16.7539 89.0857 17.193C89.4517 17.6322 89.925 17.986 90.5032 18.2519C91.0814 18.5178 91.7597 18.652 92.538 18.652C93.2601 18.652 93.9067 18.53 94.4727 18.286C95.0387 18.0421 95.5096 17.6907 95.8829 17.2345C96.2562 16.7783 96.5026 16.244 96.6246 15.634H94.8069C94.7167 16 94.4727 16.3196 94.0726 16.5928C93.6725 16.8661 93.1601 17.0027 92.538 17.0027C91.9158 17.0027 91.4035 16.8661 91.0034 16.5928C90.6032 16.3196 90.308 15.9487 90.1201 15.4754C89.9786 15.1192 89.8884 14.7289 89.8542 14.2995H96.7929V13.5163C96.7929 12.738 96.6319 12.0134 96.3098 11.34C95.9878 10.6666 95.5047 10.1201 94.8582 9.69806L94.8557 9.69562ZM90.9863 11.1131C91.3742 10.8472 91.8597 10.713 92.4379 10.713C93.0162 10.713 93.4553 10.8326 93.8213 11.0716C94.1872 11.3107 94.4654 11.6499 94.6557 12.089C94.7703 12.355 94.846 12.6551 94.8899 12.982H89.9055C89.9518 12.7063 90.0226 12.4501 90.1177 12.2159C90.3056 11.7499 90.5959 11.3815 90.9838 11.1156L90.9863 11.1131Z" fill="white"/>
<path d="M104.529 9.36108L102.494 16.7658H102.111L99.774 9.36108H97.7393L100.677 18.3516H101.226H102.06H102.611H103.412H103.878L106.43 9.36108H104.529Z" fill="white"/>
</svg>
