<svg width="213" height="48" viewBox="0 0 213 48" fill="none" xmlns="http://www.w3.org/2000/svg">
<path d="M39.0359 47.9951H9.24145C4.23504 47.9951 0.141113 43.9012 0.141113 38.8948V9.10034C0.141113 4.09393 4.23504 0 9.24145 0H39.0408C44.0423 0 48.1411 4.09393 48.1411 9.10034V38.8997C48.1411 43.9012 44.0472 48 39.0408 48L39.0359 47.9951Z" fill="white"/>
<path d="M22.7724 34.9082V13.0918H14.6821V26.8179C14.6821 31.2827 18.3027 34.9082 22.7724 34.9082Z" fill="#007790"/>
<path d="M33.5896 34.9082H23.7915V25.1052C29.2029 25.1052 33.5896 29.4968 33.5896 34.9082Z" fill="#007790"/>
<path d="M61.6115 11.5901H56.1416V35.9439H60.9431H61.6115H71.151V31.1376H61.6115V11.5901Z" fill="white"/>
<path d="M87.3542 18.3422C86.0074 17.4639 84.3582 17.0247 82.4015 17.0247C80.9132 17.0247 79.5811 17.2882 78.4149 17.8104C77.2487 18.3325 76.2728 19.04 75.4969 19.9281C74.7162 20.8161 74.1209 21.8262 73.711 22.9485C73.3011 24.0708 73.0962 25.2468 73.0962 26.4667V27.1351C73.0962 28.316 73.3011 29.4627 73.711 30.5899C74.1209 31.7122 74.7211 32.7271 75.5116 33.6249C76.302 34.5276 77.2926 35.2449 78.4783 35.7768C79.6689 36.3087 81.0401 36.5771 82.5967 36.5771C84.1532 36.5771 85.4853 36.3087 86.6662 35.7768C87.847 35.2449 88.8229 34.4984 89.6037 33.542C90.3795 32.5856 90.9065 31.4975 91.17 30.2727H86.2661C86.0416 30.829 85.622 31.2974 84.9974 31.6731C84.3728 32.0537 83.5726 32.2391 82.5967 32.2391C81.528 32.2391 80.6595 32.0147 79.9959 31.5706C79.3274 31.1266 78.8394 30.4971 78.5271 29.6871C78.3563 29.2382 78.2343 28.7405 78.1563 28.2038H91.5018V26.4032C91.5018 24.7344 91.1456 23.1974 90.4332 21.7823C89.7208 20.3721 88.6912 19.2254 87.3493 18.3471L87.3542 18.3422ZM78.5613 23.8512C78.8931 23.0412 79.3859 22.4215 80.03 22.0019C80.6741 21.5774 81.4646 21.3675 82.3966 21.3675C83.3286 21.3675 84.0703 21.5725 84.6802 21.9824C85.2902 22.3922 85.7537 22.9875 86.066 23.7683C86.2319 24.1879 86.3539 24.6563 86.432 25.1687H78.1953C78.2783 24.6856 78.4002 24.2465 78.5613 23.8512Z" fill="white"/>
<path d="M106.394 18.1622C105.116 17.6303 103.54 17.3619 101.676 17.3619C101.032 17.3619 100.344 17.3717 99.6068 17.3961C98.8749 17.4205 98.1625 17.4497 97.4696 17.4985C96.7816 17.5425 96.1814 17.5864 95.669 17.6303V22.1341C96.3571 22.0902 97.1231 22.0463 97.9722 22.0023C98.8163 21.9584 99.641 21.9243 100.441 21.9048C101.241 21.8804 101.886 21.8706 102.378 21.8706C103.359 21.8706 104.067 22.1048 104.516 22.5733C104.96 23.0417 105.184 23.7395 105.184 24.6763V24.7446H101.881C100.256 24.7446 98.8212 24.9496 97.5769 25.3595C96.3327 25.7694 95.3616 26.4037 94.6736 27.2625C93.9856 28.1213 93.6392 29.2143 93.6392 30.5464C93.6392 31.7712 93.9173 32.8203 94.4736 33.6986C95.0298 34.5769 95.8008 35.2503 96.7913 35.7187C97.7819 36.1872 98.9335 36.4214 100.246 36.4214C101.559 36.4214 102.588 36.1872 103.467 35.7187C104.345 35.2503 105.033 34.5867 105.535 33.7181C105.76 33.3278 105.94 32.8935 106.087 32.4202V35.9529H110.322V24.7446C110.322 23.0563 109.99 21.6705 109.322 20.5922C108.653 19.5138 107.682 18.7087 106.404 18.1719L106.394 18.1622ZM103.462 32.3909C102.983 32.6007 102.442 32.7081 101.842 32.7081C100.91 32.7081 100.192 32.4787 99.6898 32.0249C99.1872 31.5711 98.9383 30.9758 98.9383 30.239C98.9383 29.4632 99.1872 28.8435 99.6898 28.3897C100.192 27.9359 100.91 27.7065 101.842 27.7065H105.179V29.1753C105.135 30.0877 104.955 30.8002 104.647 31.3125C104.335 31.8249 103.94 32.1859 103.462 32.3958V32.3909Z" fill="white"/>
<path d="M120.643 19.5292C119.814 20.5881 119.296 21.9836 119.091 23.711V17.6603H114.856V35.9391H120.194V26.6338C120.194 25.1455 120.594 24.0037 121.395 23.2132C122.195 22.4228 123.332 22.0275 124.796 22.0275H126.128V17.4261H125.425C123.337 17.4261 121.741 18.1288 120.638 19.5292H120.643Z" fill="white"/>
<path d="M139.544 17.0941H139.31C137.909 17.0941 136.719 17.4064 135.743 18.0261C134.762 18.6507 134.035 19.5827 133.557 20.8269C133.381 21.2807 133.249 21.7931 133.142 22.3298V17.6552H128.907V35.934H134.245V25.2917C134.245 24.267 134.552 23.4424 135.162 22.808C135.772 22.1737 136.582 21.8565 137.582 21.8565C138.583 21.8565 139.339 22.1688 139.92 22.7885C140.495 23.4131 140.788 24.2133 140.788 25.1892V35.9291H146.126V25.4869C146.126 22.6616 145.565 20.5537 144.443 19.163C143.321 17.7723 141.691 17.0795 139.554 17.0795L139.544 17.0941Z" fill="white"/>
<path d="M169.889 15.1265C168.801 13.9945 167.435 13.0917 165.805 12.4232C164.171 11.7548 162.253 11.4229 160.052 11.4229H151.479V36.0744H160.052C162.253 36.0744 164.171 35.723 165.805 35.0253C167.44 34.3226 168.801 33.4004 169.889 32.2586C170.978 31.1119 171.793 29.8237 172.324 28.3891C172.856 26.9545 173.125 25.5248 173.125 24.1049V23.3729C173.125 21.8603 172.856 20.3915 172.324 18.9716C171.793 17.5468 170.978 16.2683 169.889 15.1363V15.1265ZM168.474 27.1497C168.084 28.2086 167.513 29.121 166.757 29.9018C166.001 30.6825 165.088 31.2875 164.019 31.7218C162.951 32.1561 161.741 32.3708 160.384 32.3708H155.48V15.1265H160.384C161.741 15.1265 162.951 15.3315 164.019 15.7462C165.088 16.1561 166.001 16.7416 166.757 17.498C167.513 18.2543 168.084 19.157 168.474 20.2012C168.865 21.2455 169.06 22.4263 169.06 23.7389C169.06 24.9637 168.865 26.1006 168.474 27.1595V27.1497Z" fill="white"/>
<path d="M189.852 18.6306C188.564 17.7864 186.949 17.3619 185.017 17.3619C183.528 17.3619 182.221 17.6254 181.098 18.1475C179.976 18.6696 179.049 19.3722 178.312 20.2506C177.58 21.1289 177.029 22.1194 176.663 23.2173C176.297 24.3201 176.112 25.457 176.112 26.6379V27.2722C176.112 28.4287 176.297 29.5558 176.663 30.6586C177.029 31.7614 177.58 32.7471 178.312 33.6254C179.044 34.5037 179.991 35.2112 181.147 35.7431C182.304 36.275 183.66 36.5433 185.217 36.5433C186.661 36.5433 187.954 36.2994 189.086 35.8114C190.218 35.3235 191.16 34.6208 191.907 33.7083C192.653 32.7959 193.146 31.7272 193.39 30.5074H189.755C189.574 31.2393 189.086 31.8785 188.286 32.425C187.486 32.9715 186.461 33.2448 185.217 33.2448C183.973 33.2448 182.948 32.9715 182.148 32.425C181.347 31.8785 180.757 31.1368 180.381 30.1902C180.098 29.4778 179.918 28.697 179.849 27.8382H193.727V26.2719C193.727 24.7153 193.405 23.2661 192.761 21.9194C192.116 20.5726 191.15 19.4796 189.857 18.6354L189.852 18.6306ZM182.113 21.4656C182.889 20.9337 183.86 20.6653 185.017 20.6653C186.173 20.6653 187.052 20.9044 187.783 21.3826C188.515 21.8608 189.072 22.5391 189.452 23.4174C189.682 23.9493 189.833 24.5494 189.921 25.2033H179.952C180.045 24.6519 180.186 24.1396 180.376 23.6711C180.752 22.7391 181.333 22.0023 182.109 21.4704L182.113 21.4656Z" fill="white"/>
<path d="M209.199 17.9615L205.13 32.7709H204.364L199.689 17.9615H195.62L201.495 35.9426H202.592H204.261H205.364H206.965H207.897L213.001 17.9615H209.199Z" fill="white"/>
</svg>
