<svg width="213" height="49" viewBox="0 0 213 49" fill="none" xmlns="http://www.w3.org/2000/svg">
<path d="M38.8948 48.4307H9.10034C4.09393 48.4307 0 44.3367 0 39.3303V9.53588C0 4.52948 4.09393 0.435547 9.10034 0.435547H38.8997C43.9012 0.435547 48 4.52948 48 9.53588V39.3352C48 44.3367 43.9061 48.4355 38.8997 48.4355L38.8948 48.4307Z" fill="#292929"/>
<path d="M22.6313 35.3438V13.5273H14.541V27.2535C14.541 31.7183 18.1616 35.3438 22.6313 35.3438Z" fill="#007790"/>
<path d="M33.4485 35.3438H23.6504V25.5408C29.0618 25.5408 33.4485 29.9324 33.4485 35.3438Z" fill="#007790"/>
<path d="M61.47 12.0256H56V36.3794H60.8015H61.47H71.0094V31.5731H61.47V12.0256Z" fill="#292929"/>
<path d="M87.2131 18.7777C85.8663 17.8994 84.217 17.4602 82.2603 17.4602C80.7721 17.4602 79.44 17.7237 78.2738 18.2458C77.1076 18.7679 76.1317 19.4755 75.3558 20.3635C74.5751 21.2516 73.9798 22.2617 73.5699 23.384C73.16 24.5063 72.9551 25.6822 72.9551 26.9021V27.5706C72.9551 28.7515 73.16 29.8981 73.5699 31.0253C73.9798 32.1476 74.58 33.1626 75.3704 34.0604C76.1609 34.9631 77.1515 35.6804 78.3372 36.2123C79.5278 36.7441 80.899 37.0125 82.4555 37.0125C84.0121 37.0125 85.3442 36.7441 86.5251 36.2123C87.7059 35.6804 88.6818 34.9338 89.4625 33.9774C90.2384 33.021 90.7654 31.9329 91.0289 30.7081H86.1249C85.9005 31.2644 85.4808 31.7328 84.8563 32.1086C84.2317 32.4892 83.4314 32.6746 82.4555 32.6746C81.3869 32.6746 80.5184 32.4501 79.8547 32.0061C79.1862 31.5621 78.6983 30.9326 78.386 30.1226C78.2152 29.6737 78.0932 29.176 78.0152 28.6392H91.3607V26.8387C91.3607 25.1699 91.0045 23.6328 90.2921 22.2178C89.5797 20.8076 88.5501 19.6609 87.2082 18.7826L87.2131 18.7777ZM78.4202 24.2867C78.752 23.4767 79.2448 22.857 79.8889 22.4373C80.533 22.0128 81.3235 21.803 82.2555 21.803C83.1875 21.803 83.9291 22.0079 84.5391 22.4178C85.149 22.8277 85.6126 23.423 85.9249 24.2037C86.0908 24.6234 86.2128 25.0918 86.2909 25.6042H78.0542C78.1371 25.1211 78.2591 24.6819 78.4202 24.2867Z" fill="#292929"/>
<path d="M106.253 18.5976C104.975 18.0657 103.399 17.7974 101.535 17.7974C100.891 17.7974 100.203 17.8071 99.4657 17.8315C98.7338 17.8559 98.0214 17.8852 97.3285 17.934C96.6405 17.9779 96.0403 18.0218 95.5279 18.0657V22.5696C96.2159 22.5256 96.982 22.4817 97.8311 22.4378C98.6752 22.3939 99.4999 22.3597 100.3 22.3402C101.1 22.3158 101.744 22.3061 102.237 22.3061C103.218 22.3061 103.926 22.5403 104.375 23.0087C104.819 23.4771 105.043 24.1749 105.043 25.1118V25.1801H101.74C100.115 25.1801 98.6801 25.385 97.4358 25.7949C96.1915 26.2048 95.2205 26.8391 94.5325 27.6979C93.8445 28.5567 93.498 29.6498 93.498 30.9819C93.498 32.2066 93.7762 33.2557 94.3324 34.1341C94.8887 35.0124 95.6597 35.6857 96.6502 36.1542C97.6408 36.6226 98.7923 36.8568 100.105 36.8568C101.418 36.8568 102.447 36.6226 103.325 36.1542C104.204 35.6857 104.892 35.0221 105.394 34.1536C105.619 33.7632 105.799 33.3289 105.946 32.8556V36.3884H110.181V25.1801C110.181 23.4918 109.849 22.106 109.181 21.0276C108.512 19.9492 107.541 19.1441 106.263 18.6074L106.253 18.5976ZM103.321 32.8263C102.842 33.0362 102.301 33.1435 101.701 33.1435C100.769 33.1435 100.051 32.9142 99.5487 32.4604C99.0461 32.0066 98.7972 31.4113 98.7972 30.6745C98.7972 29.8986 99.0461 29.2789 99.5487 28.8251C100.051 28.3713 100.769 28.142 101.701 28.142H105.038V29.6107C104.994 30.5232 104.814 31.2356 104.506 31.748C104.194 32.2603 103.799 32.6214 103.321 32.8312V32.8263Z" fill="#292929"/>
<path d="M120.502 19.9647C119.672 21.0235 119.155 22.4191 118.95 24.1464V18.0958H114.715V36.3745H120.053V27.0693C120.053 25.581 120.453 24.4392 121.253 23.6487C122.054 22.8582 123.191 22.463 124.654 22.463H125.987V17.8616H125.284C123.195 17.8616 121.6 18.5642 120.497 19.9647H120.502Z" fill="#292929"/>
<path d="M139.403 17.5295H139.169C137.768 17.5295 136.578 17.8418 135.602 18.4615C134.621 19.0861 133.894 20.0181 133.416 21.2624C133.24 21.7162 133.108 22.2285 133.001 22.7653V18.0907H128.766V36.3694H134.104V25.7272C134.104 24.7025 134.411 23.8778 135.021 23.2435C135.631 22.6091 136.441 22.292 137.441 22.292C138.442 22.292 139.198 22.6043 139.779 23.224C140.355 23.8485 140.647 24.6488 140.647 25.6247V36.3645H145.986V25.9223C145.986 23.0971 145.424 20.9891 144.302 19.5985C143.18 18.2078 141.55 17.5149 139.413 17.5149L139.403 17.5295Z" fill="#292929"/>
<path d="M169.748 15.562C168.66 14.4299 167.294 13.5272 165.664 12.8587C164.03 12.1902 162.112 11.8584 159.911 11.8584H151.338V36.5098H159.911C162.112 36.5098 164.03 36.1585 165.664 35.4607C167.299 34.7581 168.66 33.8358 169.748 32.694C170.837 31.5473 171.651 30.2591 172.183 28.8245C172.715 27.39 172.984 25.9603 172.984 24.5403V23.8084C172.984 22.2957 172.715 20.827 172.183 19.407C171.651 17.9822 170.837 16.7038 169.748 15.5717V15.562ZM168.333 27.5851C167.943 28.644 167.372 29.5565 166.616 30.3372C165.859 31.1179 164.947 31.723 163.878 32.1573C162.81 32.5916 161.6 32.8063 160.243 32.8063H155.339V15.562H160.243C161.6 15.562 162.81 15.7669 163.878 16.1817C164.947 16.5915 165.859 17.1771 166.616 17.9334C167.372 18.6898 167.943 19.5925 168.333 20.6367C168.724 21.6809 168.919 22.8618 168.919 24.1744C168.919 25.3991 168.724 26.536 168.333 27.5949V27.5851Z" fill="#292929"/>
<path d="M189.711 19.066C188.423 18.2219 186.808 17.7974 184.876 17.7974C183.388 17.7974 182.08 18.0609 180.958 18.583C179.835 19.1051 178.908 19.8077 178.171 20.686C177.439 21.5644 176.888 22.5549 176.522 23.6528C176.156 24.7556 175.971 25.8925 175.971 27.0734V27.7077C175.971 28.8642 176.156 29.9913 176.522 31.0941C176.888 32.1969 177.439 33.1825 178.171 34.0609C178.903 34.9392 179.85 35.6467 181.006 36.1786C182.163 36.7105 183.519 36.9788 185.076 36.9788C186.52 36.9788 187.813 36.7348 188.945 36.2469C190.077 35.7589 191.019 35.0563 191.766 34.1438C192.512 33.2313 193.005 32.1627 193.249 30.9428H189.614C189.433 31.6748 188.945 32.314 188.145 32.8605C187.345 33.407 186.32 33.6803 185.076 33.6803C183.832 33.6803 182.807 33.407 182.007 32.8605C181.206 32.314 180.616 31.5723 180.24 30.6257C179.957 29.9133 179.777 29.1325 179.708 28.2737H193.586V26.7074C193.586 25.1508 193.264 23.7016 192.62 22.3549C191.976 21.0081 191.009 19.9151 189.716 19.0709L189.711 19.066ZM181.973 21.9011C182.748 21.3692 183.719 21.1008 184.876 21.1008C186.032 21.1008 186.911 21.3399 187.643 21.8181C188.374 22.2963 188.931 22.9746 189.311 23.8529C189.541 24.3847 189.692 24.9849 189.78 25.6388H179.811C179.904 25.0874 180.045 24.575 180.235 24.1066C180.611 23.1746 181.192 22.4378 181.968 21.9059L181.973 21.9011Z" fill="#292929"/>
<path d="M209.058 18.397L204.989 33.2064H204.223L199.548 18.397H195.479L201.353 36.3781H202.451H204.12H205.223H206.823H207.755L212.859 18.397H209.058Z" fill="#292929"/>
</svg>
