<svg width="107" height="24" viewBox="0 0 107 24" fill="none" xmlns="http://www.w3.org/2000/svg">
<path d="M19.4474 23.9976H4.55017C2.04697 23.9976 0 21.9506 0 19.4474V4.55017C0 2.04697 2.04697 0 4.55017 0H19.4498C21.9506 0 24 2.04697 24 4.55017V19.4498C24 21.9506 21.953 24 19.4498 24L19.4474 23.9976Z" fill="#292929"/>
<path d="M11.3156 17.4541V6.5459H7.27051V13.409C7.27051 15.6414 9.08082 17.4541 11.3156 17.4541Z" fill="#007790"/>
<path d="M16.7242 17.4542H11.8252V12.5527C14.5309 12.5527 16.7242 14.7485 16.7242 17.4542Z" fill="#007790"/>
<path d="M30.735 5.79492H28V17.9718H30.4007H30.735H35.5047V15.5686H30.735V5.79492Z" fill="#292929"/>
<path d="M43.6065 9.17094C42.9332 8.73179 42.1085 8.51221 41.1302 8.51221C40.386 8.51221 39.72 8.64395 39.1369 8.90501C38.5538 9.16606 38.0658 9.51983 37.6779 9.96387C37.2875 10.4079 36.9899 10.9129 36.7849 11.4741C36.58 12.0352 36.4775 12.6232 36.4775 13.2332V13.5674C36.4775 14.1578 36.58 14.7312 36.7849 15.2948C36.9899 15.8559 37.29 16.3634 37.6852 16.8123C38.0805 17.2637 38.5757 17.6223 39.1686 17.8882C39.7639 18.1542 40.4495 18.2884 41.2278 18.2884C42.0061 18.2884 42.6721 18.1542 43.2625 17.8882C43.853 17.6223 44.3409 17.249 44.7313 16.7708C45.1192 16.2926 45.3827 15.7486 45.5144 15.1362H43.0625C42.9502 15.4143 42.7404 15.6485 42.4281 15.8364C42.1158 16.0267 41.7157 16.1194 41.2278 16.1194C40.6935 16.1194 40.2592 16.0072 39.9274 15.7852C39.5931 15.5631 39.3491 15.2484 39.193 14.8434C39.1076 14.6189 39.0466 14.3701 39.0076 14.1017H45.6803V13.2014C45.6803 12.367 45.5022 11.5985 45.146 10.891C44.7898 10.1859 44.275 9.61254 43.6041 9.17338L43.6065 9.17094ZM39.2101 11.9254C39.376 11.5204 39.6224 11.2106 39.9444 11.0008C40.2665 10.7885 40.6617 10.6836 41.1277 10.6836C41.5937 10.6836 41.9646 10.7861 42.2695 10.991C42.5745 11.196 42.8063 11.4936 42.9624 11.884C43.0454 12.0938 43.1064 12.328 43.1454 12.5842H39.0271C39.0686 12.3426 39.1296 12.1231 39.2101 11.9254Z" fill="#292929"/>
<path d="M53.1266 9.08103C52.4874 8.8151 51.6993 8.68091 50.7673 8.68091C50.4453 8.68091 50.1013 8.68579 49.7329 8.69799C49.3669 8.71019 49.0107 8.72482 48.6642 8.74922C48.3202 8.77118 48.0201 8.79314 47.764 8.8151V11.067C48.108 11.045 48.491 11.0231 48.9155 11.0011C49.3376 10.9792 49.7499 10.9621 50.1501 10.9523C50.5502 10.9401 50.8722 10.9353 51.1186 10.9353C51.609 10.9353 51.9628 11.0524 52.1873 11.2866C52.4093 11.5208 52.5215 11.8697 52.5215 12.3381V12.3723H50.8698C50.0573 12.3723 49.3401 12.4747 48.7179 12.6797C48.0958 12.8846 47.6103 13.2018 47.2663 13.6312C46.9222 14.0606 46.749 14.6071 46.749 15.2732C46.749 15.8855 46.8881 16.4101 47.1662 16.8493C47.4444 17.2884 47.8298 17.6251 48.3251 17.8593C48.8204 18.0935 49.3962 18.2106 50.0525 18.2106C50.7088 18.2106 51.2236 18.0935 51.6627 17.8593C52.1019 17.6251 52.4459 17.2933 52.6972 16.859C52.8094 16.6638 52.8997 16.4467 52.9729 16.21V17.9764H55.0906V12.3723C55.0906 11.5281 54.9247 10.8352 54.5904 10.296C54.2562 9.75685 53.7707 9.35428 53.1315 9.08591L53.1266 9.08103ZM51.6603 16.1954C51.4212 16.3003 51.1504 16.354 50.8503 16.354C50.3843 16.354 50.0256 16.2393 49.7743 16.0124C49.523 15.7855 49.3986 15.4879 49.3986 15.1195C49.3986 14.7315 49.523 14.4217 49.7743 14.1948C50.0256 13.9679 50.3843 13.8532 50.8503 13.8532H52.5191V14.5876C52.4971 15.0438 52.4068 15.4 52.2531 15.6562C52.097 15.9124 51.8994 16.0929 51.6603 16.1978V16.1954Z" fill="#292929"/>
<path d="M60.251 9.76443C59.8362 10.2939 59.5776 10.9916 59.4751 11.8553V8.83H57.3574V17.9694H60.0265V13.3167C60.0265 12.5726 60.2266 12.0017 60.6267 11.6065C61.0268 11.2112 61.5953 11.0136 62.3272 11.0136H62.9933V8.71289H62.642C61.5977 8.71289 60.7999 9.06422 60.2485 9.76443H60.251Z" fill="#292929"/>
<path d="M69.7015 8.54711H69.5844C68.8842 8.54711 68.2889 8.70326 67.8009 9.01311C67.3105 9.3254 66.947 9.7914 66.7079 10.4135C66.6201 10.6404 66.5542 10.8966 66.5005 11.165V8.82769H64.3828V17.9671H67.0519V12.6459C67.0519 12.1336 67.2056 11.7213 67.5106 11.4041C67.8156 11.0869 68.2206 10.9283 68.7207 10.9283C69.2209 10.9283 69.599 11.0845 69.8894 11.3943C70.1773 11.7066 70.3237 12.1067 70.3237 12.5947V17.9646H72.9928V12.7435C72.9928 11.3309 72.7122 10.2769 72.151 9.58158C71.5899 8.88624 70.775 8.53979 69.7064 8.53979L69.7015 8.54711Z" fill="#292929"/>
<path d="M84.8742 7.56321C84.3301 6.99718 83.647 6.54583 82.8321 6.21158C82.0148 5.87733 81.056 5.71143 79.9556 5.71143H75.6689V18.0371H79.9556C81.056 18.0371 82.0148 17.8615 82.8321 17.5126C83.6494 17.1613 84.3301 16.7001 84.8742 16.1292C85.4183 15.5559 85.8257 14.9118 86.0916 14.1945C86.3576 13.4772 86.4918 12.7624 86.4918 12.0524V11.6864C86.4918 10.9301 86.3576 10.1957 86.0916 9.48575C85.8257 8.77333 85.4183 8.13412 84.8742 7.56809V7.56321ZM84.1667 13.5748C83.9715 14.1042 83.686 14.5605 83.3079 14.9508C82.9297 15.3412 82.4735 15.6437 81.9392 15.8609C81.4048 16.078 80.7998 16.1854 80.1215 16.1854H77.6696V7.56321H80.1215C80.7998 7.56321 81.4048 7.66568 81.9392 7.87306C82.4735 8.078 82.9297 8.37077 83.3079 8.74894C83.686 9.1271 83.9715 9.57846 84.1667 10.1006C84.3618 10.6227 84.4594 11.2131 84.4594 11.8694C84.4594 12.4818 84.3618 13.0502 84.1667 13.5797V13.5748Z" fill="#292929"/>
<path d="M94.8557 9.31525C94.2116 8.89317 93.4041 8.68091 92.4379 8.68091C91.6938 8.68091 91.0399 8.81266 90.4788 9.07371C89.9176 9.33477 89.4541 9.68609 89.0857 10.1253C88.7197 10.5644 88.444 11.0597 88.261 11.6086C88.0781 12.16 87.9854 12.7285 87.9854 13.3189V13.6361C87.9854 14.2143 88.0781 14.7779 88.261 15.3293C88.444 15.8807 88.7197 16.3735 89.0857 16.8127C89.4517 17.2518 89.925 17.6056 90.5032 17.8715C91.0814 18.1375 91.7597 18.2716 92.538 18.2716C93.2601 18.2716 93.9067 18.1497 94.4727 17.9057C95.0387 17.6617 95.5096 17.3104 95.8829 16.8541C96.2562 16.3979 96.5026 15.8636 96.6246 15.2536H94.8069C94.7167 15.6196 94.4727 15.9392 94.0726 16.2125C93.6725 16.4857 93.1601 16.6224 92.538 16.6224C91.9158 16.6224 91.4035 16.4857 91.0034 16.2125C90.6032 15.9392 90.308 15.5684 90.1201 15.0951C89.9786 14.7389 89.8884 14.3485 89.8542 13.9191H96.7929V13.1359C96.7929 12.3576 96.6319 11.633 96.3098 10.9597C95.9878 10.2863 95.5047 9.73977 94.8582 9.31769L94.8557 9.31525ZM90.9863 10.7328C91.3742 10.4668 91.8597 10.3326 92.4379 10.3326C93.0162 10.3326 93.4553 10.4522 93.8213 10.6913C94.1872 10.9304 94.4654 11.2695 94.6557 11.7087C94.7703 11.9746 94.846 12.2747 94.8899 12.6016H89.9055C89.9518 12.3259 90.0226 12.0697 90.1177 11.8355C90.3056 11.3695 90.5959 11.0011 90.9838 10.7352L90.9863 10.7328Z" fill="#292929"/>
<path d="M104.529 8.98071L102.494 16.3854H102.111L99.774 8.98071H97.7393L100.677 17.9713H101.226H102.06H102.611H103.412H103.878L106.43 8.98071H104.529Z" fill="#292929"/>
</svg>
