<svg width="142" height="33" viewBox="0 0 142 33" fill="none" xmlns="http://www.w3.org/2000/svg">
<path d="M25.9299 32.4692H6.06689C2.72929 32.4692 0 29.7399 0 26.4023V6.5393C0 3.2017 2.72929 0.472412 6.06689 0.472412H25.9331C29.2675 0.472412 32 3.2017 32 6.5393V26.4055C32 29.7399 29.2707 32.4724 25.9331 32.4724L25.9299 32.4692Z" fill="#292929"/>
<path d="M15.0879 23.7445V9.2002H9.69434V18.351C9.69434 21.3275 12.1081 23.7445 15.0879 23.7445Z" fill="#007790"/>
<path d="M22.2987 23.7446H15.7666V17.2092C19.3742 17.2092 22.2987 20.137 22.2987 23.7446Z" fill="#007790"/>
<path d="M40.9796 8.19922H37.333V24.4351H40.534H40.9796H47.3393V21.2308H40.9796V8.19922Z" fill="#292929"/>
<path d="M58.1421 12.7006C57.2442 12.115 56.1447 11.8223 54.8402 11.8223C53.8481 11.8223 52.96 11.9979 52.1825 12.346C51.405 12.6941 50.7544 13.1658 50.2372 13.7578C49.7167 14.3499 49.3199 15.0232 49.0466 15.7714C48.7733 16.5196 48.6367 17.3036 48.6367 18.1169V18.5625C48.6367 19.3498 48.7733 20.1142 49.0466 20.8657C49.3199 21.6139 49.72 22.2905 50.247 22.8891C50.774 23.4909 51.4343 23.9691 52.2248 24.3236C53.0185 24.6782 53.9326 24.8571 54.9704 24.8571C56.0081 24.8571 56.8961 24.6782 57.6834 24.3236C58.4706 23.9691 59.1212 23.4713 59.6417 22.8338C60.1589 22.1962 60.5103 21.4707 60.6859 20.6542H57.4166C57.267 21.0251 56.9872 21.3374 56.5708 21.5878C56.1545 21.8416 55.621 21.9652 54.9704 21.9652C54.2579 21.9652 53.6789 21.8156 53.2365 21.5195C52.7908 21.2235 52.4655 20.8039 52.2573 20.2639C52.1435 19.9646 52.0622 19.6328 52.0101 19.2749H60.9071V18.0746C60.9071 16.962 60.6697 15.9373 60.1947 14.994C59.7198 14.0538 59.0334 13.2894 58.1388 12.7038L58.1421 12.7006ZM52.2801 16.3732C52.5013 15.8332 52.8299 15.4201 53.2593 15.1403C53.6887 14.8573 54.2157 14.7175 54.837 14.7175C55.4583 14.7175 55.9528 14.8541 56.3594 15.1273C56.766 15.4006 57.0751 15.7975 57.2833 16.3179C57.3939 16.5977 57.4752 16.91 57.5272 17.2516H52.0361C52.0914 16.9295 52.1728 16.6367 52.2801 16.3732Z" fill="#292929"/>
<path d="M70.8354 12.5804C69.9831 12.2258 68.9324 12.0469 67.6898 12.0469C67.2604 12.0469 66.8017 12.0534 66.3105 12.0696C65.8225 12.0859 65.3476 12.1054 64.8857 12.138C64.427 12.1672 64.0269 12.1965 63.6853 12.2258V15.2283C64.144 15.1991 64.6547 15.1698 65.2207 15.1405C65.7835 15.1112 66.3333 15.0885 66.8667 15.0754C67.4002 15.0592 67.8296 15.0527 68.1582 15.0527C68.8121 15.0527 69.2837 15.2088 69.583 15.5211C69.879 15.8334 70.0287 16.2986 70.0287 16.9232V16.9687H67.8264C66.7431 16.9687 65.7867 17.1053 64.9572 17.3786C64.1277 17.6518 63.4803 18.0747 63.0217 18.6473C62.563 19.2198 62.332 19.9485 62.332 20.8365C62.332 21.6531 62.5175 22.3525 62.8883 22.938C63.2591 23.5235 63.7731 23.9725 64.4335 24.2848C65.0938 24.597 65.8616 24.7532 66.7366 24.7532C67.6117 24.7532 68.2981 24.597 68.8836 24.2848C69.4692 23.9725 69.9278 23.5301 70.2629 22.951C70.4125 22.6908 70.5329 22.4013 70.6305 22.0857V24.4409H73.4541V16.9687C73.4541 15.8432 73.2329 14.9193 72.7872 14.2004C72.3416 13.4815 71.6942 12.9447 70.8419 12.5869L70.8354 12.5804ZM68.8804 22.0662C68.5616 22.2061 68.2005 22.2776 67.8004 22.2776C67.179 22.2776 66.7008 22.1247 66.3658 21.8222C66.0307 21.5197 65.8648 21.1228 65.8648 20.6316C65.8648 20.1144 66.0307 19.7012 66.3658 19.3987C66.7008 19.0962 67.179 18.9433 67.8004 18.9433H70.0254V19.9224C69.9962 20.5308 69.8758 21.0057 69.6709 21.3473C69.4627 21.6888 69.1992 21.9296 68.8804 22.0694V22.0662Z" fill="#292929"/>
<path d="M80.3347 13.4919C79.7816 14.1978 79.4368 15.1282 79.3002 16.2797V12.246H76.4766V24.4318H80.0354V18.2283C80.0354 17.2361 80.3021 16.4749 80.8356 15.9479C81.3691 15.4209 82.1271 15.1574 83.103 15.1574H83.991V12.0898H83.5226C82.1303 12.0898 81.0666 12.5583 80.3314 13.4919H80.3347Z" fill="#292929"/>
<path d="M92.9353 11.8684H92.7792C91.8456 11.8684 91.0518 12.0766 90.4012 12.4897C89.7474 12.9061 89.2627 13.5274 88.9439 14.357C88.8268 14.6595 88.7389 15.0011 88.6674 15.3589V12.2425H85.8438V24.4283H89.4026V17.3335C89.4026 16.6503 89.6075 16.1006 90.0141 15.6777C90.4208 15.2548 90.9608 15.0434 91.6276 15.0434C92.2945 15.0434 92.7987 15.2515 93.1858 15.6647C93.5697 16.0811 93.7649 16.6146 93.7649 17.2652V24.4251H97.3237V17.4636C97.3237 15.5801 96.9496 14.1748 96.2014 13.2477C95.4532 12.3206 94.3667 11.8586 92.9419 11.8586L92.9353 11.8684Z" fill="#292929"/>
<path d="M113.165 10.5567C112.44 9.80199 111.529 9.20018 110.442 8.75452C109.353 8.30885 108.074 8.08765 106.607 8.08765H100.892V24.5219H106.607C108.074 24.5219 109.353 24.2877 110.442 23.8225C111.532 23.3541 112.44 22.7393 113.165 21.9781C113.891 21.2136 114.434 20.3548 114.789 19.3984C115.143 18.442 115.322 17.4889 115.322 16.5423V16.0543C115.322 15.0459 115.143 14.0667 114.789 13.1201C114.434 12.1702 113.891 11.3179 113.165 10.5632V10.5567ZM112.222 18.5721C111.962 19.2781 111.581 19.8864 111.077 20.4069C110.573 20.9273 109.964 21.3307 109.252 21.6202C108.539 21.9097 107.733 22.0529 106.828 22.0529H103.559V10.5567H106.828C107.733 10.5567 108.539 10.6933 109.252 10.9698C109.964 11.2431 110.573 11.6334 111.077 12.1377C111.581 12.6419 111.962 13.2437 112.222 13.9398C112.482 14.636 112.612 15.4232 112.612 16.2983C112.612 17.1148 112.482 17.8727 112.222 18.5787V18.5721Z" fill="#292929"/>
<path d="M126.474 12.8927C125.615 12.3299 124.538 12.0469 123.25 12.0469C122.258 12.0469 121.386 12.2225 120.638 12.5706C119.89 12.9187 119.272 13.3871 118.781 13.9727C118.293 14.5582 117.925 15.2186 117.681 15.9505C117.437 16.6857 117.313 17.4436 117.313 18.2309V18.6538C117.313 19.4247 117.437 20.1762 117.681 20.9114C117.925 21.6466 118.293 22.3037 118.781 22.8892C119.269 23.4748 119.9 23.9464 120.671 24.301C121.442 24.6556 122.346 24.8345 123.384 24.8345C124.347 24.8345 125.209 24.6719 125.963 24.3466C126.718 24.0213 127.346 23.5528 127.844 22.9445C128.341 22.3362 128.67 21.6238 128.832 20.8105H126.409C126.289 21.2985 125.963 21.7246 125.43 22.089C124.896 22.4533 124.213 22.6355 123.384 22.6355C122.554 22.6355 121.871 22.4533 121.337 22.089C120.804 21.7246 120.41 21.2302 120.16 20.5991C119.971 20.1241 119.851 19.6037 119.805 19.0311H129.057V17.9869C129.057 16.9492 128.842 15.983 128.413 15.0852C127.983 14.1874 127.339 13.4587 126.477 12.8959L126.474 12.8927ZM121.315 14.7827C121.832 14.4281 122.479 14.2492 123.25 14.2492C124.021 14.2492 124.607 14.4086 125.095 14.7274C125.583 15.0462 125.954 15.4983 126.207 16.0839C126.36 16.4385 126.461 16.8386 126.52 17.2745H119.874C119.935 16.9069 120.03 16.5653 120.157 16.253C120.407 15.6317 120.794 15.1405 121.311 14.7859L121.315 14.7827Z" fill="#292929"/>
<path d="M139.372 12.4468L136.658 22.3197H136.148L133.031 12.4468H130.318L134.235 24.4342H134.967H136.079H136.815H137.882H138.503L141.906 12.4468H139.372Z" fill="#292929"/>
</svg>
