<svg width="32" height="32" viewBox="0 0 32 32" fill="none" xmlns="http://www.w3.org/2000/svg">
<g clip-path="url(#clip0_1223_4241)">
<path d="M22.2393 4L16.0713 15.1367H28.4072L22.2393 4ZM22.2393 8.12695L25.0127 13.1367H19.4658L22.2393 8.12695ZM8.88184 16.1367C5.57284 16.1367 2.88184 18.8277 2.88184 22.1367C2.88184 25.4457 5.57284 28.1367 8.88184 28.1367C12.1908 28.1367 14.8818 25.4457 14.8818 22.1367C14.8818 18.8277 12.1908 16.1367 8.88184 16.1367ZM16.8818 17.1367V28.1367H27.8818V17.1367H16.8818ZM8.88184 18.1367C11.0878 18.1367 12.8818 19.9307 12.8818 22.1367C12.8818 24.3427 11.0878 26.1367 8.88184 26.1367C6.67584 26.1367 4.88184 24.3427 4.88184 22.1367C4.88184 19.9307 6.67584 18.1367 8.88184 18.1367ZM18.8818 19.1367H25.8818V26.1367H18.8818V19.1367Z" fill="#243201"/>
</g>
<defs>
<clipPath id="clip0_1223_4241">
<rect width="32" height="32" fill="white"/>
</clipPath>
</defs>
</svg>
