<svg width="765" height="820" viewBox="0 0 765 820" fill="none" xmlns="http://www.w3.org/2000/svg">
<g filter="url(#filter0_f_1381_1334)">
<path d="M50.9109 421.44C44.6656 415.188 44.6656 405.052 50.9109 398.801L344.121 105.303C350.367 99.052 360.492 99.052 366.738 105.303L659.692 398.545C665.937 404.796 665.937 414.932 659.692 421.183L366.481 714.681C360.236 720.932 350.11 720.932 343.865 714.681L50.9109 421.44Z" fill="url(#paint0_linear_1381_1334)" fill-opacity="0.15"/>
</g>
<path d="M41.3082 349.26C35.0628 343.008 35.0628 332.873 41.3082 326.621L293.363 74.3192C299.609 68.0678 309.734 68.0678 315.98 74.3192L568.035 326.621C574.28 332.873 574.28 343.008 568.035 349.26L315.98 601.562C309.734 607.814 299.609 607.814 293.363 601.562L41.3082 349.26Z" fill="url(#paint1_linear_1381_1334)"/>
<path d="M195.664 503.296C189.419 497.044 189.419 486.909 195.664 480.657L293.365 382.861C299.61 376.61 309.736 376.61 315.981 382.861L413.681 480.657C419.927 486.909 419.927 497.044 413.681 503.296L315.981 601.092C309.736 607.343 299.61 607.343 293.365 601.092L195.664 503.296Z" fill="url(#paint2_linear_1381_1334)"/>
<path opacity="0.25" d="M136.438 400.455C130.193 394.203 130.193 384.068 136.438 377.816L308.497 205.589C314.743 199.337 324.868 199.337 331.114 205.589L488.04 362.669C494.285 368.92 494.285 379.056 488.04 385.307L315.981 557.535C309.736 563.786 299.61 563.786 293.365 557.535L136.438 400.455Z" fill="url(#paint3_linear_1381_1334)"/>
<defs>
<filter id="filter0_f_1381_1334" x="-53.7729" y="0.614807" width="818.149" height="818.755" filterUnits="userSpaceOnUse" color-interpolation-filters="sRGB">
<feFlood flood-opacity="0" result="BackgroundImageFix"/>
<feBlend mode="normal" in="SourceGraphic" in2="BackgroundImageFix" result="shape"/>
<feGaussianBlur stdDeviation="50" result="effect1_foregroundBlur_1381_1334"/>
</filter>
<linearGradient id="paint0_linear_1381_1334" x1="197.516" y1="252.052" x2="513.396" y2="567.623" gradientUnits="userSpaceOnUse">
<stop stop-color="#007790"/>
<stop offset="1" stop-color="#004055"/>
</linearGradient>
<linearGradient id="paint1_linear_1381_1334" x1="167.336" y1="200.47" x2="442.276" y2="475.142" gradientUnits="userSpaceOnUse">
<stop stop-color="#0097B5"/>
<stop offset="1" stop-color="#00C0E3"/>
</linearGradient>
<linearGradient id="paint2_linear_1381_1334" x1="255.15" y1="560.331" x2="373.079" y2="442.518" gradientUnits="userSpaceOnUse">
<stop stop-color="#007790"/>
<stop offset="1" stop-color="#00C0E3" stop-opacity="0.15"/>
</linearGradient>
<linearGradient id="paint3_linear_1381_1334" x1="230.929" y1="490.98" x2="421.741" y2="300.355" gradientUnits="userSpaceOnUse">
<stop stop-color="#004055"/>
<stop offset="1" stop-color="#0097B5" stop-opacity="0.45"/>
</linearGradient>
</defs>
</svg>
