<svg width="726" height="888" viewBox="0 0 726 888" fill="none" xmlns="http://www.w3.org/2000/svg">
<path d="M880.725 16C880.725 7.16345 873.561 0 864.725 0H372.012C363.176 0 356.012 7.16344 356.012 16V433.31C356.012 442.147 363.176 449.31 372.012 449.31H864.725C873.561 449.31 880.725 442.147 880.725 433.31V16Z" fill="#00C0E3"/>
<path d="M821.721 75.0046C821.721 66.1681 814.558 59.0046 805.721 59.0046H313.009C304.172 59.0046 297.009 66.1681 297.009 75.0046V492.315C297.009 501.152 304.173 508.315 313.009 508.315H805.721C814.558 508.315 821.721 501.152 821.721 492.315V75.0046Z" fill="#0097B5"/>
<g opacity="0.4" filter="url(#filter0_f_1227_7550)">
<ellipse cx="535.977" cy="458.469" rx="335.736" ry="229.531" fill="#004055"/>
</g>
<path d="M762.716 134.009C762.716 125.172 755.552 118.009 746.716 118.009H254.003C245.167 118.009 238.003 125.172 238.003 134.009V551.319C238.003 560.156 245.167 567.319 254.003 567.319H746.716C755.552 567.319 762.716 560.156 762.716 551.319V134.009Z" fill="#007790"/>
<path d="M703.712 193.014C703.712 184.177 696.549 177.014 687.712 177.014H195C186.163 177.014 179 184.177 179 193.014V610.324C179 619.161 186.163 626.324 195 626.324H687.712C696.549 626.324 703.712 619.161 703.712 610.324V193.014Z" fill="#004055"/>
<defs>
<filter id="filter0_f_1227_7550" x="0.240967" y="28.9377" width="1071.47" height="859.062" filterUnits="userSpaceOnUse" color-interpolation-filters="sRGB">
<feFlood flood-opacity="0" result="BackgroundImageFix"/>
<feBlend mode="normal" in="SourceGraphic" in2="BackgroundImageFix" result="shape"/>
<feGaussianBlur stdDeviation="100" result="effect1_foregroundBlur_1227_7550"/>
</filter>
</defs>
</svg>
