<svg width="1073" height="888" viewBox="0 0 1073 888" fill="none" xmlns="http://www.w3.org/2000/svg">
<path d="M881.225 16C881.225 7.16345 874.061 0 865.225 0H372.512C363.676 0 356.512 7.16344 356.512 16V433.31C356.512 442.147 363.676 449.31 372.512 449.31H865.225C874.061 449.31 881.225 442.147 881.225 433.31V16Z" fill="#00C0E3"/>
<path d="M822.221 75.0044C822.221 66.1678 815.058 59.0044 806.221 59.0044H313.509C304.672 59.0044 297.509 66.1678 297.509 75.0044V492.315C297.509 501.151 304.672 508.315 313.509 508.315H806.221C815.058 508.315 822.221 501.151 822.221 492.315V75.0044Z" fill="#0097B5"/>
<g opacity="0.4" filter="url(#filter0_f_1855_41563)">
<ellipse cx="536.477" cy="458.469" rx="335.736" ry="229.531" fill="#004055"/>
</g>
<path d="M763.216 134.009C763.216 125.173 756.052 118.009 747.216 118.009H254.503C245.667 118.009 238.503 125.173 238.503 134.009V551.32C238.503 560.156 245.667 567.32 254.503 567.32H747.216C756.052 567.32 763.216 560.156 763.216 551.32V134.009Z" fill="#007790"/>
<path d="M704.212 193.014C704.212 184.177 697.049 177.014 688.212 177.014H195.5C186.663 177.014 179.5 184.177 179.5 193.014V610.324C179.5 619.161 186.663 626.324 195.5 626.324H688.212C697.049 626.324 704.212 619.161 704.212 610.324V193.014Z" fill="#004055"/>
<defs>
<filter id="filter0_f_1855_41563" x="0.740967" y="28.9375" width="1071.47" height="859.062" filterUnits="userSpaceOnUse" color-interpolation-filters="sRGB">
<feFlood flood-opacity="0" result="BackgroundImageFix"/>
<feBlend mode="normal" in="SourceGraphic" in2="BackgroundImageFix" result="shape"/>
<feGaussianBlur stdDeviation="100" result="effect1_foregroundBlur_1855_41563"/>
</filter>
</defs>
</svg>
