<svg width="48" height="88" viewBox="0 0 48 88" fill="none" xmlns="http://www.w3.org/2000/svg">
<path d="M38.8948 48.4307H9.10034C4.09393 48.4307 0 44.3367 0 39.3303V9.53588C0 4.52948 4.09393 0.435547 9.10034 0.435547H38.8997C43.9012 0.435547 48 4.52948 48 9.53588V39.3352C48 44.3367 43.9061 48.4355 38.8997 48.4355L38.8948 48.4307Z" fill="#292929"/>
<path d="M22.6313 35.3437V13.5273H14.541V27.2535C14.541 31.7182 18.1616 35.3437 22.6313 35.3437Z" fill="#007790"/>
<path d="M33.4485 35.3438H23.6504V25.5408C29.0618 25.5408 33.4485 29.9324 33.4485 35.3438Z" fill="#007790"/>
<path d="M2.91961 69.3444H8.00767V66.7985H2.91961V56.4355H0V69.3444H2.56174H2.91961Z" fill="#292929"/>
<path d="M16.2807 69.2553C16.9078 68.9736 17.4322 68.5757 17.8468 68.0686C18.2613 67.5616 18.5412 66.9841 18.683 66.3362H16.0681C15.9476 66.632 15.7244 66.8784 15.3913 67.0792C15.0583 67.2799 14.6331 67.3785 14.1087 67.3785C13.5382 67.3785 13.0776 67.2623 12.7197 67.0263C12.3654 66.7904 12.1032 66.4559 11.9367 66.0263C11.8446 65.7869 11.7808 65.5228 11.7383 65.2411H18.8566V64.2868C18.8566 63.403 18.6652 62.5861 18.2861 61.836C17.907 61.086 17.3578 60.4804 16.6385 60.0156C15.9193 59.5508 15.0405 59.3184 13.9953 59.3184C13.2016 59.3184 12.493 59.4557 11.8694 59.7339C11.2458 60.012 10.7284 60.3853 10.3139 60.8571C9.89934 61.329 9.58045 61.8642 9.36077 62.4593C9.14109 63.0544 9.03125 63.6776 9.03125 64.3256V64.6777C9.03125 65.3045 9.14109 65.9136 9.36077 66.5087C9.58045 67.1038 9.89934 67.639 10.321 68.1179C10.7426 68.5968 11.2706 68.9771 11.9048 69.2588C12.539 69.5405 13.2725 69.6849 14.1016 69.6849C14.9307 69.6849 15.6429 69.544 16.2736 69.2588L16.2807 69.2553ZM11.9544 62.9311C12.1316 62.5016 12.3938 62.1741 12.7375 61.9487C13.0811 61.7234 13.5028 61.6142 14.0024 61.6142C14.502 61.6142 14.8953 61.7234 15.2212 61.9417C15.5472 62.16 15.7952 62.4769 15.9582 62.8889C16.0468 63.1107 16.1106 63.3607 16.1531 63.6319H11.7595C11.8056 63.3748 11.8694 63.1424 11.9544 62.9347V62.9311Z" fill="#292929"/>
<path d="M26.3424 68.1609C26.4628 67.9531 26.5585 67.7242 26.6364 67.4742V69.3475H28.897V63.4037C28.897 62.5093 28.7199 61.7734 28.362 61.2029C28.0077 60.6325 27.4868 60.2029 26.8065 59.9212C26.1227 59.6395 25.2865 59.4951 24.2873 59.4951C23.9436 59.4951 23.5751 59.5022 23.1854 59.5127C22.7956 59.5233 22.4129 59.5409 22.048 59.5655C21.6795 59.5902 21.3606 59.6113 21.0878 59.636V62.0234C21.4563 61.9987 21.8637 61.9776 22.3173 61.9529C22.7673 61.9283 23.2066 61.9107 23.6353 61.9001C24.0641 61.8896 24.4078 61.8825 24.6664 61.8825C25.1873 61.8825 25.5664 62.0058 25.8038 62.2522C26.0412 62.4987 26.1581 62.872 26.1581 63.365V63.4002H24.3971C23.5326 63.4002 22.7673 63.5093 22.1011 63.7276C21.435 63.946 20.9212 64.2805 20.5527 64.7347C20.1842 65.189 20 65.77 20 66.4777C20 67.1256 20.1488 67.682 20.4464 68.1503C20.7441 68.6151 21.1551 68.9743 21.683 69.2208C22.211 69.4672 22.8239 69.5905 23.5255 69.5905C24.2271 69.5905 24.7727 69.4672 25.244 69.2208C25.7117 68.9743 26.0802 68.6186 26.3459 68.1609H26.3424ZM23.2279 67.2665C22.9621 67.0235 22.8275 66.7101 22.8275 66.3193C22.8275 65.9073 22.9621 65.5798 23.2279 65.3368C23.4936 65.0939 23.8763 64.9742 24.3759 64.9742H26.1546V65.7523C26.1298 66.2348 26.0341 66.6115 25.8711 66.8827C25.7046 67.1538 25.4955 67.3439 25.2404 67.4566C24.9853 67.5693 24.6983 67.6256 24.3759 67.6256C23.8763 67.6256 23.4936 67.5059 23.2279 67.263V67.2665Z" fill="#292929"/>
<path d="M34.4139 60.643C33.971 61.2029 33.6946 61.9423 33.5848 62.8614V59.6535H31.3242V69.3439H34.173V64.4107C34.173 63.6219 34.3856 63.0163 34.8143 62.5973C35.243 62.1782 35.8454 61.9705 36.6284 61.9705H37.3406V59.5303H36.9686C35.8524 59.5303 35.0021 59.9 34.4139 60.643Z" fill="#292929"/>
<path d="M47.0965 60.4577C46.4977 59.7218 45.6296 59.3521 44.4887 59.3521H44.3647C43.6171 59.3521 42.9829 59.5175 42.462 59.8485C41.9412 60.1795 41.5514 60.6725 41.2963 61.3345C41.2042 61.5739 41.1333 61.8451 41.0731 62.1303V59.6549H38.8125V69.3453H41.6612V63.7043C41.6612 63.162 41.8242 62.7219 42.1502 62.3874C42.4762 62.0528 42.9049 61.8838 43.4399 61.8838C43.975 61.8838 44.3753 62.0493 44.6872 62.3803C44.9954 62.7113 45.1513 63.1339 45.1513 63.655V69.3488H48.0001V63.8135C48.0001 62.3169 47.6989 61.2007 47.1001 60.4612L47.0965 60.4577Z" fill="#292929"/>
<path d="M9.82179 76.0271C9.2407 75.425 8.51434 74.9496 7.64271 74.594C6.77108 74.2418 5.74709 74.0623 4.57429 74.0623H0V87.1331H4.57429C5.74709 87.1331 6.77108 86.9464 7.64271 86.5767C8.51434 86.207 9.2407 85.7175 9.82179 85.1084C10.4029 84.5027 10.8351 83.8161 11.1221 83.0555C11.4056 82.2949 11.5509 81.5378 11.5509 80.7843V80.3934C11.5509 79.5906 11.4091 78.8124 11.1221 78.0588C10.8387 77.3053 10.4029 76.6257 9.82179 76.0236V76.0271ZM9.06708 82.4005C8.85804 82.9604 8.55332 83.4463 8.14939 83.8583C7.74547 84.2703 7.26005 84.5907 6.68959 84.8231C6.11913 85.052 5.47427 85.1682 4.75145 85.1682H2.13656V76.0236H4.75145C5.47427 76.0236 6.12267 76.1327 6.68959 76.3511C7.26005 76.5694 7.74547 76.8792 8.14939 77.2807C8.55332 77.6821 8.85804 78.1574 9.06708 78.7138C9.27613 79.2666 9.37889 79.8934 9.37889 80.5871C9.37889 81.235 9.27613 81.8407 9.06708 82.4005Z" fill="#292929"/>
<path d="M20.4715 77.884C19.7842 77.4368 18.9232 77.2114 17.8921 77.2114C17.0984 77.2114 16.4004 77.3488 15.8016 77.6269C15.2028 77.9051 14.7067 78.2748 14.317 78.7396C13.9237 79.2044 13.6331 79.7291 13.4347 80.3136C13.2363 80.8982 13.1406 81.5003 13.1406 82.1271V82.4616C13.1406 83.0743 13.2398 83.6729 13.4347 84.2574C13.6296 84.8419 13.9237 85.3666 14.317 85.8314C14.7067 86.2962 15.2134 86.673 15.8299 86.9547C16.4464 87.2364 17.1693 87.3807 18.0019 87.3807C18.7743 87.3807 19.4617 87.2505 20.0676 86.9934C20.6735 86.7328 21.1731 86.3631 21.5699 85.8807C21.9668 85.3983 22.2325 84.8314 22.3636 84.1835H20.4255C20.3298 84.5743 20.0712 84.9124 19.6424 85.2011C19.2137 85.4898 18.668 85.6342 18.0055 85.6342C17.3429 85.6342 16.7937 85.4898 16.3685 85.2011C15.9398 84.9124 15.628 84.518 15.426 84.0144C15.2736 83.6377 15.178 83.2222 15.1425 82.7679H22.5443V81.9369C22.5443 81.1129 22.3707 80.3418 22.027 79.6305C21.6833 78.9157 21.166 78.3382 20.4786 77.8875L20.4715 77.884ZM16.3437 79.3875C16.7582 79.1058 17.2756 78.9615 17.8921 78.9615C18.5086 78.9615 18.9763 79.0882 19.3696 79.3418C19.7593 79.5953 20.057 79.9545 20.2589 80.4193C20.383 80.701 20.4609 81.0214 20.5105 81.3665H15.1921C15.2418 81.0742 15.3197 80.8031 15.4189 80.5531C15.6209 80.0566 15.9291 79.6692 16.3437 79.384V79.3875Z" fill="#292929"/>
<path d="M28.6227 85.3829H28.2117L25.7208 77.5305H23.5488L26.681 87.0625H27.2692H28.1585H28.7432H29.6006H30.0967L32.8214 77.5305H30.7912L28.6227 85.3829Z" fill="#292929"/>
</svg>
