<svg width="32" height="59" viewBox="0 0 32 59" fill="none" xmlns="http://www.w3.org/2000/svg">
<path d="M25.9299 32.4692H6.06689C2.72929 32.4692 0 29.7399 0 26.4023V6.5393C0 3.2017 2.72929 0.472412 6.06689 0.472412H25.9331C29.2675 0.472412 32 3.2017 32 6.5393V26.4055C32 29.7399 29.2707 32.4724 25.9331 32.4724L25.9299 32.4692Z" fill="#292929"/>
<path d="M15.0879 23.7445V9.2002H9.69434V18.3509C9.69434 21.3275 12.1081 23.7445 15.0879 23.7445Z" fill="#007790"/>
<path d="M22.2987 23.7446H15.7666V17.2092C19.3742 17.2092 22.2987 20.1369 22.2987 23.7446Z" fill="#007790"/>
<path d="M1.94641 46.4116H5.33845V44.7143H1.94641V37.8057H0V46.4116H1.70783H1.94641Z" fill="#292929"/>
<path d="M10.8535 46.3522C11.2716 46.1644 11.6211 45.8991 11.8975 45.561C12.1739 45.223 12.3605 44.838 12.455 44.4061H10.7117C10.6314 44.6033 10.4826 44.7676 10.2606 44.9014C10.0385 45.0352 9.75506 45.1009 9.40546 45.1009C9.02515 45.1009 8.71807 45.0235 8.4795 44.8662C8.24328 44.7089 8.06849 44.4859 7.95747 44.1995C7.89605 44.0399 7.85353 43.8638 7.82518 43.676H12.5707V43.0398C12.5707 42.4506 12.4432 41.906 12.1904 41.406C11.9377 40.906 11.5715 40.5022 11.092 40.1923C10.6125 39.8825 10.0267 39.7275 9.32987 39.7275C8.80075 39.7275 8.32832 39.8191 7.91258 40.0045C7.49685 40.19 7.15197 40.4388 6.8756 40.7534C6.59923 41.068 6.38664 41.4248 6.24019 41.8215C6.09373 42.2182 6.02051 42.6337 6.02051 43.0657V43.3004C6.02051 43.7183 6.09373 44.1244 6.24019 44.5211C6.38664 44.9178 6.59923 45.2747 6.88033 45.5939C7.16142 45.9132 7.51338 46.1667 7.93621 46.3545C8.35903 46.5423 8.84799 46.6385 9.40073 46.6385C9.95348 46.6385 10.4283 46.5446 10.8487 46.3545L10.8535 46.3522ZM7.96928 42.1361C8.08738 41.8497 8.26218 41.6314 8.49131 41.4811C8.72044 41.3309 9.00153 41.2581 9.33459 41.2581C9.66766 41.2581 9.92985 41.3309 10.1472 41.4764C10.3645 41.622 10.5298 41.8332 10.6385 42.1079C10.6976 42.2558 10.7401 42.4225 10.7684 42.6032H7.83936C7.87007 42.4318 7.91258 42.2769 7.96928 42.1384V42.1361Z" fill="#292929"/>
<path d="M17.5612 45.6226C17.6416 45.4841 17.7053 45.3315 17.7573 45.1649V46.4137H19.2644V42.4512C19.2644 41.8549 19.1462 41.3643 18.9077 40.984C18.6715 40.6037 18.3242 40.3173 17.8707 40.1295C17.4148 39.9417 16.8573 39.8455 16.1912 39.8455C15.9621 39.8455 15.7164 39.8502 15.4566 39.8572C15.1967 39.8642 14.9416 39.876 14.6983 39.8924C14.4527 39.9088 14.2401 39.9229 14.0582 39.9394V41.531C14.3038 41.5145 14.5755 41.5004 14.8779 41.484C15.1778 41.4676 15.4707 41.4558 15.7566 41.4488C16.0424 41.4418 16.2715 41.4371 16.444 41.4371C16.7912 41.4371 17.0439 41.5192 17.2022 41.6835C17.3605 41.8479 17.4384 42.0967 17.4384 42.4253V42.4488H16.2644C15.6881 42.4488 15.1778 42.5216 14.7338 42.6671C14.2897 42.8127 13.9472 43.0357 13.7015 43.3385C13.4558 43.6413 13.333 44.0287 13.333 44.5005C13.333 44.9325 13.4322 45.3034 13.6306 45.6156C13.8291 45.9255 14.1031 46.1649 14.455 46.3292C14.807 46.4935 15.2156 46.5757 15.6833 46.5757C16.151 46.5757 16.5148 46.4935 16.829 46.3292C17.1408 46.1649 17.3864 45.9278 17.5636 45.6226H17.5612ZM15.4849 45.0264C15.3078 44.8644 15.218 44.6555 15.218 44.3949C15.218 44.1202 15.3078 43.9019 15.4849 43.7399C15.6621 43.578 15.9172 43.4982 16.2503 43.4982H17.4361V44.0169C17.4195 44.3386 17.3557 44.5897 17.2471 44.7705C17.1361 44.9512 16.9967 45.078 16.8266 45.1531C16.6565 45.2283 16.4652 45.2658 16.2503 45.2658C15.9172 45.2658 15.6621 45.186 15.4849 45.024V45.0264Z" fill="#292929"/>
<path d="M22.9426 40.6107C22.6473 40.984 22.4631 41.4769 22.3899 42.0896V39.9511H20.8828V46.4113H22.782V43.1225C22.782 42.5967 22.9237 42.1929 23.2095 41.9136C23.4953 41.6342 23.8969 41.4957 24.4189 41.4957H24.8937V39.8689H24.6457C23.9016 39.8689 23.3347 40.1154 22.9426 40.6107Z" fill="#292929"/>
<path d="M31.3977 40.4871C30.9985 39.9965 30.4198 39.75 29.6592 39.75H29.5765C29.0781 39.75 28.6552 39.8603 28.308 40.081C27.9608 40.3017 27.7009 40.6303 27.5309 41.0716C27.4694 41.2313 27.4222 41.412 27.382 41.6022V39.9519H25.875V46.4122H27.7742V42.6515C27.7742 42.29 27.8828 41.9965 28.1001 41.7735C28.3175 41.5505 28.6033 41.4378 28.96 41.4378C29.3166 41.4378 29.5836 41.5482 29.7914 41.7688C29.9969 41.9895 30.1009 42.2712 30.1009 42.6186V46.4145H32V42.7243C32 41.7266 31.7993 40.9824 31.4001 40.4895L31.3977 40.4871Z" fill="#292929"/>
<path d="M6.54786 50.8668C6.16047 50.4654 5.67623 50.1485 5.09514 49.9114C4.51405 49.6766 3.8314 49.5569 3.04953 49.5569H0V58.2708H3.04953C3.8314 58.2708 4.51405 58.1463 5.09514 57.8999C5.67623 57.6534 6.16047 57.3271 6.54786 56.921C6.93525 56.5172 7.22343 56.0594 7.41477 55.5524C7.60374 55.0453 7.70058 54.5406 7.70058 54.0382V53.7777C7.70058 53.2424 7.6061 52.7236 7.41477 52.2213C7.22579 51.7189 6.93525 51.2659 6.54786 50.8644V50.8668ZM6.04472 55.1157C5.90536 55.489 5.70221 55.8129 5.43293 56.0876C5.16364 56.3622 4.84003 56.5759 4.45972 56.7308C4.07942 56.8834 3.64951 56.9609 3.16763 56.9609H1.42437V50.8644H3.16763C3.64951 50.8644 4.08178 50.9372 4.45972 51.0828C4.84003 51.2283 5.16364 51.4349 5.43293 51.7025C5.70221 51.9701 5.90536 52.287 6.04472 52.6579C6.18409 53.0265 6.25259 53.4443 6.25259 53.9068C6.25259 54.3387 6.18409 54.7425 6.04472 55.1157Z" fill="#292929"/>
<path d="M13.648 52.1046C13.1898 51.8065 12.6158 51.6562 11.9284 51.6562C11.3993 51.6562 10.9339 51.7478 10.5347 51.9333C10.1355 52.1187 9.80481 52.3652 9.54497 52.6751C9.28278 52.9849 9.08908 53.3347 8.9568 53.7244C8.82452 54.1141 8.76074 54.5155 8.76074 54.9333V55.1564C8.76074 55.5648 8.82688 55.9639 8.9568 56.3536C9.08672 56.7433 9.28278 57.093 9.54497 57.4029C9.80481 57.7128 10.1426 57.9639 10.5536 58.1517C10.9646 58.3395 11.4465 58.4358 12.0016 58.4358C12.5165 58.4358 12.9748 58.3489 13.3787 58.1776C13.7827 58.0039 14.1157 57.7574 14.3803 57.4358C14.6448 57.1142 14.822 56.7362 14.9094 56.3043H13.6173C13.5535 56.5648 13.3811 56.7902 13.0953 56.9827C12.8095 57.1752 12.4457 57.2714 12.004 57.2714C11.5622 57.2714 11.1961 57.1752 10.9127 56.9827C10.6268 56.7902 10.419 56.5273 10.2843 56.1916C10.1828 55.9404 10.119 55.6634 10.0954 55.3606H15.0299V54.8066C15.0299 54.2573 14.9141 53.7432 14.685 53.269C14.4559 52.7924 14.111 52.4074 13.6527 52.107L13.648 52.1046ZM10.8961 53.107C11.1725 52.9192 11.5174 52.823 11.9284 52.823C12.3394 52.823 12.6512 52.9075 12.9134 53.0765C13.1732 53.2455 13.3716 53.4849 13.5063 53.7948C13.589 53.9826 13.6409 54.1962 13.674 54.4263H10.1284C10.1615 54.2314 10.2135 54.0507 10.2796 53.884C10.4142 53.553 10.6197 53.2948 10.8961 53.1046V53.107Z" fill="#292929"/>
<path d="M19.0818 57.1038H18.8078L17.1472 51.8689H15.6992L17.7874 58.2235H18.1795H18.7724H19.1621H19.7338H20.0645L21.8809 51.8689H20.5274L19.0818 57.1038Z" fill="#292929"/>
</svg>
