<svg width="24" height="44" viewBox="0 0 24 44" fill="none" xmlns="http://www.w3.org/2000/svg">
<path d="M19.4474 23.9976H4.55017C2.04697 23.9976 0 21.9506 0 19.4474V4.55017C0 2.04697 2.04697 0 4.55017 0H19.4498C21.9506 0 24 2.04697 24 4.55017V19.4498C24 21.9506 21.953 24 19.4498 24L19.4474 23.9976Z" fill="#292929"/>
<path d="M11.3156 17.4541V6.5459H7.27051V13.409C7.27051 15.6414 9.08082 17.4541 11.3156 17.4541Z" fill="#007790"/>
<path d="M16.7242 17.4542H11.8252V12.5527C14.5309 12.5527 16.7242 14.7485 16.7242 17.4542Z" fill="#007790"/>
<path d="M1.4598 34.4544H4.00383V33.1815H1.4598V28H0V34.4544H1.28087H1.4598Z" fill="#292929"/>
<path d="M8.14033 34.4099C8.45391 34.269 8.71611 34.0701 8.92338 33.8165C9.13066 33.563 9.27062 33.2743 9.34148 32.9503H8.03404C7.9738 33.0982 7.86219 33.2215 7.69566 33.3218C7.52913 33.4222 7.31654 33.4715 7.05434 33.4715C6.76911 33.4715 6.5388 33.4134 6.35987 33.2954C6.18271 33.1774 6.05161 33.0102 5.96834 32.7954C5.92228 32.6757 5.89039 32.5436 5.86913 32.4028H9.42829V31.9256C9.42829 31.4837 9.33262 31.0753 9.14306 30.7002C8.9535 30.3252 8.6789 30.0224 8.31927 29.79C7.95963 29.5576 7.52027 29.4414 6.99765 29.4414C6.60081 29.4414 6.24648 29.5101 5.93468 29.6492C5.62288 29.7882 5.36422 29.9749 5.15695 30.2108C4.94967 30.4467 4.79022 30.7143 4.68038 31.0119C4.57054 31.3094 4.51562 31.621 4.51562 31.945V32.1211C4.51562 32.4345 4.57054 32.739 4.68038 33.0366C4.79022 33.3341 4.94967 33.6017 5.16049 33.8412C5.37131 34.0806 5.63528 34.2708 5.9524 34.4116C6.26952 34.5525 6.63624 34.6247 7.0508 34.6247C7.46535 34.6247 7.82144 34.5542 8.13679 34.4116L8.14033 34.4099ZM5.9772 31.2478C6.06578 31.033 6.19688 30.8693 6.36873 30.7566C6.54057 30.6439 6.75139 30.5893 7.00119 30.5893C7.25099 30.5893 7.44763 30.6439 7.61062 30.7531C7.77361 30.8622 7.89762 31.0207 7.97912 31.2267C8.02341 31.3376 8.0553 31.4626 8.07656 31.5982H5.87976C5.90279 31.4696 5.93468 31.3534 5.9772 31.2496V31.2478Z" fill="#292929"/>
<path d="M13.1712 33.8627C13.2314 33.7588 13.2792 33.6443 13.3182 33.5193V34.456H14.4485V31.4841C14.4485 31.0369 14.3599 30.6689 14.181 30.3837C14.0038 30.0985 13.7434 29.8837 13.4033 29.7428C13.0613 29.602 12.6432 29.5298 12.1436 29.5298C11.9718 29.5298 11.7876 29.5333 11.5927 29.5386C11.3978 29.5439 11.2065 29.5527 11.024 29.565C10.8397 29.5773 10.6803 29.5879 10.5439 29.6002V30.7939C10.7281 30.7816 10.9319 30.771 11.1586 30.7587C11.3836 30.7464 11.6033 30.7376 11.8177 30.7323C12.032 30.727 12.2039 30.7235 12.3332 30.7235C12.5936 30.7235 12.7832 30.7851 12.9019 30.9083C13.0206 31.0316 13.0791 31.2182 13.0791 31.4647V31.4823H12.1986C11.7663 31.4823 11.3836 31.5369 11.0506 31.646C10.7175 31.7552 10.4606 31.9225 10.2764 32.1496C10.0921 32.3767 10 32.6672 10 33.0211C10 33.345 10.0744 33.6232 10.2232 33.8574C10.372 34.0898 10.5775 34.2694 10.8415 34.3926C11.1055 34.5159 11.412 34.5775 11.7628 34.5775C12.1135 34.5775 12.3864 34.5159 12.622 34.3926C12.8558 34.2694 13.0401 34.0915 13.173 33.8627H13.1712ZM11.6139 33.4155C11.4811 33.294 11.4137 33.1373 11.4137 32.9419C11.4137 32.7359 11.4811 32.5721 11.6139 32.4507C11.7468 32.3292 11.9381 32.2693 12.1879 32.2693H13.0773V32.6584C13.0649 32.8996 13.017 33.088 12.9356 33.2236C12.8523 33.3591 12.7478 33.4542 12.6202 33.5105C12.4927 33.5669 12.3492 33.5951 12.1879 33.5951C11.9381 33.5951 11.7468 33.5352 11.6139 33.4137V33.4155Z" fill="#292929"/>
<path d="M17.207 30.1037C16.9855 30.3837 16.8473 30.7534 16.7924 31.2129V29.609H15.6621V34.4542H17.0865V31.9876C17.0865 31.5932 17.1928 31.2904 17.4071 31.0809C17.6215 30.8713 17.9227 30.7675 18.3142 30.7675H18.6703V29.5474H18.4843C17.9262 29.5474 17.501 29.7322 17.207 30.1037Z" fill="#292929"/>
<path d="M23.5483 30.0111C23.2489 29.6431 22.8148 29.4583 22.2444 29.4583H22.1824C21.8085 29.4583 21.4914 29.541 21.231 29.7065C20.9706 29.872 20.7757 30.1185 20.6481 30.4495C20.6021 30.5692 20.5667 30.7048 20.5365 30.8474V29.6097H19.4062V34.4549H20.8306V31.6344C20.8306 31.3632 20.9121 31.1432 21.0751 30.9759C21.2381 30.8086 21.4525 30.7241 21.72 30.7241C21.9875 30.7241 22.1877 30.8069 22.3436 30.9724C22.4977 31.1379 22.5757 31.3492 22.5757 31.6097V34.4566H24V31.689C24 30.9407 23.8494 30.3826 23.55 30.0128L23.5483 30.0111Z" fill="#292929"/>
<path d="M4.91089 37.7959C4.62035 37.4948 4.25717 37.2572 3.82136 37.0793C3.38554 36.9033 2.87355 36.8135 2.28714 36.8135H0V43.3489H2.28714C2.87355 43.3489 3.38554 43.2556 3.82136 43.0707C4.25717 42.8858 4.62035 42.6411 4.91089 42.3365C5.20144 42.0337 5.41757 41.6904 5.56107 41.3101C5.7028 40.9298 5.77544 40.5513 5.77544 40.1745V39.9791C5.77544 39.5776 5.70457 39.1885 5.56107 38.8118C5.41935 38.435 5.20144 38.0952 4.91089 37.7941V37.7959ZM4.53354 40.9826C4.42902 41.2626 4.27666 41.5055 4.0747 41.7115C3.87273 41.9175 3.63002 42.0777 3.34479 42.1939C3.05957 42.3084 2.73713 42.3665 2.37572 42.3665H1.06828V37.7941H2.37572C2.73713 37.7941 3.06134 37.8487 3.34479 37.9579C3.63002 38.067 3.87273 38.222 4.0747 38.4227C4.27666 38.6234 4.42902 38.8611 4.53354 39.1392C4.63807 39.4157 4.68944 39.7291 4.68944 40.0759C4.68944 40.3999 4.63807 40.7027 4.53354 40.9826Z" fill="#292929"/>
<path d="M10.2358 38.7242C9.89208 38.5006 9.46158 38.3879 8.94604 38.3879C8.5492 38.3879 8.20019 38.4566 7.90079 38.5957C7.60139 38.7348 7.35336 38.9196 7.15849 39.152C6.96184 39.3844 6.81657 39.6468 6.71736 39.939C6.61815 40.2313 6.57031 40.5324 6.57031 40.8458V41.013C6.57031 41.3194 6.61992 41.6187 6.71736 41.9109C6.81479 42.2032 6.96184 42.4655 7.15849 42.6979C7.35336 42.9303 7.6067 43.1187 7.91496 43.2596C8.22322 43.4004 8.58463 43.4726 9.00096 43.4726C9.38717 43.4726 9.73086 43.4075 10.0338 43.2789C10.3367 43.1486 10.5865 42.9638 10.785 42.7226C10.9834 42.4814 11.1163 42.1979 11.1818 41.874H10.2127C10.1649 42.0694 10.0356 42.2384 9.82121 42.3828C9.60685 42.5271 9.33402 42.5993 9.00273 42.5993C8.67144 42.5993 8.39684 42.5271 8.18425 42.3828C7.96988 42.2384 7.81398 42.0412 7.713 41.7894C7.63682 41.6011 7.58899 41.3933 7.57127 41.1662H11.2722V40.7507C11.2722 40.3387 11.1853 39.9531 11.0135 39.5975C10.8417 39.2401 10.583 38.9513 10.2393 38.726L10.2358 38.7242ZM8.17185 39.476C8.37912 39.3351 8.63778 39.263 8.94604 39.263C9.2543 39.263 9.48815 39.3263 9.6848 39.4531C9.87967 39.5799 10.0285 39.7595 10.1295 39.9919C10.1915 40.1327 10.2305 40.2929 10.2553 40.4655H7.59607C7.62088 40.3193 7.65985 40.1838 7.70946 40.0588C7.81044 39.8105 7.96457 39.6168 8.17185 39.4742V39.476Z" fill="#292929"/>
<path d="M14.3114 42.4735H14.1058L12.8604 38.5474H11.7744L13.3405 43.3134H13.6346H14.0793H14.3716H14.8003H15.0483L16.4107 38.5474H15.3956L14.3114 42.4735Z" fill="#292929"/>
</svg>
