<svg width="32" height="59" viewBox="0 0 32 59" fill="none" xmlns="http://www.w3.org/2000/svg">
<path d="M25.9299 32.8493H6.06689C2.72929 32.8493 0 30.12 0 26.7824V6.91943C0 3.58183 2.72929 0.852539 6.06689 0.852539H25.9331C29.2675 0.852539 32 3.58183 32 6.91943V26.7856C32 30.12 29.2707 32.8525 25.9331 32.8525L25.9299 32.8493Z" fill="white"/>
<path d="M15.0879 24.1248V9.58057H9.69434V18.7313C9.69434 21.7078 12.1081 24.1248 15.0879 24.1248Z" fill="#007790"/>
<path d="M22.2987 24.1247H15.7666V17.5894C19.3742 17.5894 22.2987 20.5171 22.2987 24.1247Z" fill="#007790"/>
<path d="M1.94641 46.7919H5.33845V45.0947H1.94641V38.186H0V46.7919H1.70783H1.94641Z" fill="white"/>
<path d="M10.8535 46.7325C11.2716 46.5447 11.6211 46.2795 11.8975 45.9414C12.1739 45.6034 12.3605 45.2184 12.455 44.7865H10.7117C10.6314 44.9836 10.4826 45.148 10.2606 45.2818C10.0385 45.4156 9.75506 45.4813 9.40546 45.4813C9.02515 45.4813 8.71807 45.4038 8.4795 45.2466C8.24328 45.0893 8.06849 44.8663 7.95747 44.5799C7.89605 44.4202 7.85353 44.2442 7.82518 44.0564H12.5707V43.4202C12.5707 42.831 12.4432 42.2864 12.1904 41.7864C11.9377 41.2864 11.5715 40.8826 11.092 40.5727C10.6125 40.2628 10.0267 40.1079 9.32987 40.1079C8.80075 40.1079 8.32832 40.1995 7.91258 40.3849C7.49685 40.5704 7.15197 40.8192 6.8756 41.1338C6.59923 41.4483 6.38664 41.8051 6.24019 42.2019C6.09373 42.5986 6.02051 43.0141 6.02051 43.446V43.6808C6.02051 44.0986 6.09373 44.5048 6.24019 44.9015C6.38664 45.2982 6.59923 45.655 6.88033 45.9743C7.16142 46.2935 7.51338 46.5471 7.93621 46.7349C8.35903 46.9227 8.84799 47.0189 9.40073 47.0189C9.95348 47.0189 10.4283 46.925 10.8487 46.7349L10.8535 46.7325ZM7.96928 42.5164C8.08738 42.23 8.26218 42.0117 8.49131 41.8615C8.72044 41.7112 9.00153 41.6385 9.33459 41.6385C9.66766 41.6385 9.92985 41.7112 10.1472 41.8568C10.3645 42.0023 10.5298 42.2136 10.6385 42.4883C10.6976 42.6362 10.7401 42.8028 10.7684 42.9836H7.83936C7.87007 42.8122 7.91258 42.6573 7.96928 42.5188V42.5164Z" fill="white"/>
<path d="M17.5612 46.0028C17.6416 45.8643 17.7053 45.7117 17.7573 45.545V46.7939H19.2644V42.8313C19.2644 42.235 19.1462 41.7444 18.9077 41.3641C18.6715 40.9838 18.3242 40.6974 17.8707 40.5096C17.4148 40.3218 16.8573 40.2256 16.1912 40.2256C15.9621 40.2256 15.7164 40.2303 15.4566 40.2373C15.1967 40.2444 14.9416 40.2561 14.6983 40.2725C14.4527 40.289 14.2401 40.3031 14.0582 40.3195V41.9111C14.3038 41.8947 14.5755 41.8806 14.8779 41.8641C15.1778 41.8477 15.4707 41.836 15.7566 41.8289C16.0424 41.8219 16.2715 41.8172 16.444 41.8172C16.7912 41.8172 17.0439 41.8993 17.2022 42.0637C17.3605 42.228 17.4384 42.4768 17.4384 42.8055V42.829H16.2644C15.6881 42.829 15.1778 42.9017 14.7338 43.0473C14.2897 43.1928 13.9472 43.4158 13.7015 43.7186C13.4558 44.0215 13.333 44.4088 13.333 44.8807C13.333 45.3126 13.4322 45.6835 13.6306 45.9957C13.8291 46.3056 14.1031 46.545 14.455 46.7094C14.807 46.8737 15.2156 46.9558 15.6833 46.9558C16.151 46.9558 16.5148 46.8737 16.829 46.7094C17.1408 46.545 17.3864 46.3079 17.5636 46.0028H17.5612ZM15.4849 45.4065C15.3078 45.2445 15.218 45.0356 15.218 44.775C15.218 44.5004 15.3078 44.282 15.4849 44.1201C15.6621 43.9581 15.9172 43.8783 16.2503 43.8783H17.4361V44.3971C17.4195 44.7187 17.3557 44.9699 17.2471 45.1506C17.1361 45.3314 16.9967 45.4581 16.8266 45.5333C16.6565 45.6084 16.4652 45.6459 16.2503 45.6459C15.9172 45.6459 15.6621 45.5661 15.4849 45.4041V45.4065Z" fill="white"/>
<path d="M22.9426 40.9908C22.6473 41.3641 22.4631 41.8571 22.3899 42.4697V40.3312H20.8828V46.7915H22.782V43.5026C22.782 42.9768 22.9237 42.573 23.2095 42.2937C23.4953 42.0143 23.8969 41.8758 24.4189 41.8758H24.8937V40.249H24.6457C23.9016 40.249 23.3347 40.4955 22.9426 40.9908Z" fill="white"/>
<path d="M31.3977 40.8675C30.9985 40.3769 30.4198 40.1304 29.6592 40.1304H29.5765C29.0781 40.1304 28.6552 40.2407 28.308 40.4614C27.9608 40.682 27.7009 41.0107 27.5309 41.452C27.4694 41.6116 27.4222 41.7924 27.382 41.9825V40.3323H25.875V46.7925H27.7742V43.0319C27.7742 42.6704 27.8828 42.3769 28.1001 42.1539C28.3175 41.9309 28.6033 41.8182 28.96 41.8182C29.3166 41.8182 29.5836 41.9285 29.7914 42.1492C29.9969 42.3699 30.1009 42.6516 30.1009 42.999V46.7949H32V43.1046C32 42.107 31.7993 41.3628 31.4001 40.8698L31.3977 40.8675Z" fill="white"/>
<path d="M6.54786 51.2469C6.16047 50.8455 5.67623 50.5286 5.09514 50.2915C4.51405 50.0567 3.8314 49.937 3.04953 49.937H0V58.6509H3.04953C3.8314 58.6509 4.51405 58.5265 5.09514 58.28C5.67623 58.0335 6.16047 57.7072 6.54786 57.3011C6.93525 56.8973 7.22343 56.4396 7.41477 55.9325C7.60374 55.4254 7.70058 54.9207 7.70058 54.4184V54.1578C7.70058 53.6226 7.6061 53.1038 7.41477 52.6014C7.22579 52.099 6.93525 51.646 6.54786 51.2446V51.2469ZM6.04472 55.4959C5.90536 55.8691 5.70221 56.1931 5.43293 56.4677C5.16364 56.7424 4.84003 56.956 4.45972 57.1109C4.07942 57.2635 3.64951 57.341 3.16763 57.341H1.42437V51.2446H3.16763C3.64951 51.2446 4.08178 51.3173 4.45972 51.4629C4.84003 51.6084 5.16364 51.815 5.43293 52.0826C5.70221 52.3502 5.90536 52.6671 6.04472 53.038C6.18409 53.4066 6.25259 53.8245 6.25259 54.2869C6.25259 54.7188 6.18409 55.1226 6.04472 55.4959Z" fill="white"/>
<path d="M13.648 52.485C13.1898 52.1869 12.6158 52.0366 11.9284 52.0366C11.3993 52.0366 10.9339 52.1282 10.5347 52.3136C10.1355 52.4991 9.80481 52.7456 9.54497 53.0554C9.28278 53.3653 9.08908 53.7151 8.9568 54.1048C8.82452 54.4944 8.76074 54.8959 8.76074 55.3137V55.5367C8.76074 55.9452 8.82688 56.3443 8.9568 56.7339C9.08672 57.1236 9.28278 57.4734 9.54497 57.7833C9.80481 58.0931 10.1426 58.3443 10.5536 58.5321C10.9646 58.7199 11.4465 58.8162 12.0016 58.8162C12.5165 58.8162 12.9748 58.7293 13.3787 58.5579C13.7827 58.3842 14.1157 58.1377 14.3803 57.8161C14.6448 57.4945 14.822 57.1166 14.9094 56.6846H13.6173C13.5535 56.9452 13.3811 57.1706 13.0953 57.3631C12.8095 57.5556 12.4457 57.6518 12.004 57.6518C11.5622 57.6518 11.1961 57.5556 10.9127 57.3631C10.6268 57.1706 10.419 56.9077 10.2843 56.572C10.1828 56.3208 10.119 56.0438 10.0954 55.741H15.0299V55.1869C15.0299 54.6376 14.9141 54.1235 14.685 53.6493C14.4559 53.1728 14.111 52.7878 13.6527 52.4873L13.648 52.485ZM10.8961 53.4874C11.1725 53.2996 11.5174 53.2033 11.9284 53.2033C12.3394 53.2033 12.6512 53.2878 12.9134 53.4568C13.1732 53.6259 13.3716 53.8653 13.5063 54.1752C13.589 54.363 13.6409 54.5766 13.674 54.8067H10.1284C10.1615 54.6118 10.2135 54.4311 10.2796 54.2644C10.4142 53.9334 10.6197 53.6752 10.8961 53.485V53.4874Z" fill="white"/>
<path d="M19.0818 57.4844H18.8078L17.1472 52.2495H15.6992L17.7874 58.6042H18.1795H18.7724H19.1621H19.7338H20.0645L21.8809 52.2495H20.5274L19.0818 57.4844Z" fill="white"/>
</svg>
