<svg width="48" height="88" viewBox="0 0 48 88" fill="none" xmlns="http://www.w3.org/2000/svg">
<path d="M38.8948 48.811H9.10034C4.09393 48.811 0 44.7171 0 39.7107V9.91625C0 4.90985 4.09393 0.815918 9.10034 0.815918H38.8997C43.9012 0.815918 48 4.90985 48 9.91625V39.7156C48 44.7171 43.9061 48.8159 38.8997 48.8159L38.8948 48.811Z" fill="white"/>
<path d="M22.6313 35.7241V13.9077H14.541V27.6338C14.541 32.0986 18.1616 35.7241 22.6313 35.7241Z" fill="#007790"/>
<path d="M33.4485 35.7239H23.6504V25.9209C29.0618 25.9209 33.4485 30.3125 33.4485 35.7239Z" fill="#007790"/>
<path d="M2.91961 69.7247H8.00767V67.1789H2.91961V56.8159H0V69.7247H2.56174H2.91961Z" fill="white"/>
<path d="M16.2807 69.6356C16.9078 69.3539 17.4322 68.956 17.8468 68.449C18.2613 67.9419 18.5412 67.3645 18.683 66.7165H16.0681C15.9476 67.0123 15.7244 67.2588 15.3913 67.4595C15.0583 67.6602 14.6331 67.7588 14.1087 67.7588C13.5382 67.7588 13.0776 67.6426 12.7197 67.4067C12.3654 67.1708 12.1032 66.8363 11.9367 66.4067C11.8446 66.1672 11.7808 65.9031 11.7383 65.6214H18.8566V64.6672C18.8566 63.7834 18.6652 62.9664 18.2861 62.2164C17.907 61.4664 17.3578 60.8607 16.6385 60.3959C15.9193 59.9311 15.0405 59.6987 13.9953 59.6987C13.2016 59.6987 12.493 59.8361 11.8694 60.1142C11.2458 60.3924 10.7284 60.7657 10.3139 61.2375C9.89934 61.7094 9.58045 62.2446 9.36077 62.8397C9.14109 63.4348 9.03125 64.058 9.03125 64.7059V65.058C9.03125 65.6848 9.14109 66.294 9.36077 66.8891C9.58045 67.4842 9.89934 68.0194 10.321 68.4983C10.7426 68.9772 11.2706 69.3575 11.9048 69.6392C12.539 69.9209 13.2725 70.0652 14.1016 70.0652C14.9307 70.0652 15.6429 69.9244 16.2736 69.6392L16.2807 69.6356ZM11.9544 63.3115C12.1316 62.8819 12.3938 62.5544 12.7375 62.3291C13.0811 62.1037 13.5028 61.9946 14.0024 61.9946C14.502 61.9946 14.8953 62.1037 15.2212 62.3221C15.5472 62.5404 15.7952 62.8573 15.9582 63.2693C16.0468 63.4911 16.1106 63.7411 16.1531 64.0122H11.7595C11.8056 63.7552 11.8694 63.5228 11.9544 63.315V63.3115Z" fill="white"/>
<path d="M26.3424 68.5412C26.4628 68.3335 26.5585 68.1046 26.6364 67.8546V69.7279H28.897V63.7841C28.897 62.8897 28.7199 62.1537 28.362 61.5833C28.0077 61.0128 27.4868 60.5833 26.8065 60.3016C26.1227 60.0199 25.2865 59.8755 24.2873 59.8755C23.9436 59.8755 23.5751 59.8825 23.1854 59.8931C22.7956 59.9037 22.4129 59.9213 22.048 59.9459C21.6795 59.9706 21.3606 59.9917 21.0878 60.0163V62.4037C21.4563 62.3791 21.8637 62.358 22.3173 62.3333C22.7673 62.3087 23.2066 62.2911 23.6353 62.2805C24.0641 62.2699 24.4078 62.2629 24.6664 62.2629C25.1873 62.2629 25.5664 62.3861 25.8038 62.6326C26.0412 62.8791 26.1581 63.2524 26.1581 63.7453V63.7805H24.3971C23.5326 63.7805 22.7673 63.8897 22.1011 64.108C21.435 64.3263 20.9212 64.6608 20.5527 65.1151C20.1842 65.5693 20 66.1503 20 66.8581C20 67.506 20.1488 68.0624 20.4464 68.5307C20.7441 68.9955 21.1551 69.3546 21.683 69.6011C22.211 69.8476 22.8239 69.9709 23.5255 69.9709C24.2271 69.9709 24.7727 69.8476 25.244 69.6011C25.7117 69.3546 26.0802 68.999 26.3459 68.5412H26.3424ZM23.2279 67.6468C22.9621 67.4039 22.8275 67.0905 22.8275 66.6996C22.8275 66.2877 22.9621 65.9602 23.2279 65.7172C23.4936 65.4743 23.8763 65.3545 24.3759 65.3545H26.1546V66.1327C26.1298 66.6151 26.0341 66.9919 25.8711 67.263C25.7046 67.5342 25.4955 67.7243 25.2404 67.837C24.9853 67.9497 24.6983 68.006 24.3759 68.006C23.8763 68.006 23.4936 67.8863 23.2279 67.6433V67.6468Z" fill="white"/>
<path d="M34.4139 61.0234C33.971 61.5832 33.6946 62.3227 33.5848 63.2417V60.0339H31.3242V69.7243H34.173V64.7911C34.173 64.0023 34.3856 63.3967 34.8143 62.9776C35.243 62.5586 35.8454 62.3509 36.6284 62.3509H37.3406V59.9106H36.9686C35.8524 59.9106 35.0021 60.2804 34.4139 61.0234Z" fill="white"/>
<path d="M47.0965 60.8381C46.4977 60.1022 45.6296 59.7324 44.4887 59.7324H44.3647C43.6171 59.7324 42.9829 59.8979 42.462 60.2289C41.9412 60.5599 41.5514 61.0529 41.2963 61.7149C41.2042 61.9543 41.1333 62.2255 41.0731 62.5107V60.0352H38.8125V69.7257H41.6612V64.0847C41.6612 63.5424 41.8242 63.1022 42.1502 62.7677C42.4762 62.4332 42.9049 62.2642 43.4399 62.2642C43.975 62.2642 44.3753 62.4297 44.6872 62.7607C44.9954 63.0917 45.1513 63.5142 45.1513 64.0354V69.7292H48.0001V64.1938C48.0001 62.6973 47.6989 61.5811 47.1001 60.8416L47.0965 60.8381Z" fill="white"/>
<path d="M9.82179 76.4077C9.2407 75.8056 8.51434 75.3302 7.64271 74.9746C6.77108 74.6225 5.74709 74.4429 4.57429 74.4429H0V87.5137H4.57429C5.74709 87.5137 6.77108 87.3271 7.64271 86.9573C8.51434 86.5876 9.2407 86.0981 9.82179 85.489C10.4029 84.8833 10.8351 84.1967 11.1221 83.4361C11.4056 82.6755 11.5509 81.9184 11.5509 81.1649V80.774C11.5509 79.9712 11.4091 79.193 11.1221 78.4395C10.8387 77.6859 10.4029 77.0063 9.82179 76.4042V76.4077ZM9.06708 82.7811C8.85804 83.341 8.55332 83.8269 8.14939 84.2389C7.74547 84.6509 7.26005 84.9713 6.68959 85.2037C6.11913 85.4326 5.47427 85.5488 4.75145 85.5488H2.13656V76.4042H4.75145C5.47427 76.4042 6.12267 76.5134 6.68959 76.7317C7.26005 76.95 7.74547 77.2599 8.14939 77.6613C8.55332 78.0627 8.85804 78.5381 9.06708 79.0944C9.27613 79.6472 9.37889 80.274 9.37889 80.9677C9.37889 81.6156 9.27613 82.2213 9.06708 82.7811Z" fill="white"/>
<path d="M20.4715 78.2643C19.7842 77.8172 18.9232 77.5918 17.8921 77.5918C17.0984 77.5918 16.4004 77.7291 15.8016 78.0073C15.2028 78.2855 14.7067 78.6552 14.317 79.12C13.9237 79.5848 13.6331 80.1095 13.4347 80.694C13.2363 81.2785 13.1406 81.8807 13.1406 82.5074V82.8419C13.1406 83.4546 13.2398 84.0533 13.4347 84.6378C13.6296 85.2223 13.9237 85.747 14.317 86.2118C14.7067 86.6766 15.2134 87.0533 15.8299 87.335C16.4464 87.6167 17.1693 87.7611 18.0019 87.7611C18.7743 87.7611 19.4617 87.6308 20.0676 87.3738C20.6735 87.1132 21.1731 86.7435 21.5699 86.2611C21.9668 85.7787 22.2325 85.2117 22.3636 84.5638H20.4255C20.3298 84.9547 20.0712 85.2927 19.6424 85.5815C19.2137 85.8702 18.668 86.0146 18.0055 86.0146C17.3429 86.0146 16.7937 85.8702 16.3685 85.5815C15.9398 85.2927 15.628 84.8983 15.426 84.3948C15.2736 84.018 15.178 83.6025 15.1425 83.1483H22.5443V82.3173C22.5443 81.4933 22.3707 80.7222 22.027 80.0109C21.6833 79.2961 21.166 78.7186 20.4786 78.2679L20.4715 78.2643ZM16.3437 79.7679C16.7582 79.4862 17.2756 79.3418 17.8921 79.3418C18.5086 79.3418 18.9763 79.4686 19.3696 79.7221C19.7593 79.9757 20.057 80.3348 20.2589 80.7996C20.383 81.0813 20.4609 81.4018 20.5105 81.7468H15.1921C15.2418 81.4546 15.3197 81.1834 15.4189 80.9334C15.6209 80.4369 15.9291 80.0496 16.3437 79.7644V79.7679Z" fill="white"/>
<path d="M28.6227 85.763H28.2117L25.7208 77.9106H23.5488L26.681 87.4426H27.2692H28.1585H28.7432H29.6006H30.0967L32.8214 77.9106H30.7912L28.6227 85.763Z" fill="white"/>
</svg>
