<svg width="24" height="44" viewBox="0 0 24 44" fill="none" xmlns="http://www.w3.org/2000/svg">
<path d="M19.4474 24.3779H4.55017C2.04697 24.3779 0 22.331 0 19.8278V4.93054C0 2.42734 2.04697 0.380371 4.55017 0.380371H19.4498C21.9506 0.380371 24 2.42734 24 4.93054V19.8302C24 22.331 21.953 24.3804 19.4498 24.3804L19.4474 24.3779Z" fill="white"/>
<path d="M11.3156 17.8345V6.92627H7.27051V13.7893C7.27051 16.0217 9.08082 17.8345 11.3156 17.8345Z" fill="#007790"/>
<path d="M16.7242 17.8346H11.8252V12.9331C14.5309 12.9331 16.7242 15.1289 16.7242 17.8346Z" fill="#007790"/>
<path d="M1.4598 34.8348H4.00383V33.5619H1.4598V28.3804H0V34.8348H1.28087H1.4598Z" fill="white"/>
<path d="M8.14033 34.7902C8.45391 34.6494 8.71611 34.4504 8.92338 34.1969C9.13066 33.9434 9.27062 33.6546 9.34148 33.3307H8.03404C7.9738 33.4786 7.86219 33.6018 7.69566 33.7022C7.52913 33.8025 7.31654 33.8518 7.05434 33.8518C6.76911 33.8518 6.5388 33.7937 6.35987 33.6758C6.18271 33.5578 6.05161 33.3905 5.96834 33.1758C5.92228 33.056 5.89039 32.924 5.86913 32.7831H9.42829V32.306C9.42829 31.8641 9.33262 31.4556 9.14306 31.0806C8.9535 30.7056 8.6789 30.4028 8.31927 30.1704C7.95963 29.938 7.52027 29.8218 6.99765 29.8218C6.60081 29.8218 6.24648 29.8904 5.93468 30.0295C5.62288 30.1686 5.36422 30.3552 5.15695 30.5912C4.94967 30.8271 4.79022 31.0947 4.68038 31.3922C4.57054 31.6898 4.51562 32.0014 4.51562 32.3254V32.5014C4.51562 32.8148 4.57054 33.1194 4.68038 33.417C4.79022 33.7145 4.94967 33.9821 5.16049 34.2216C5.37131 34.461 5.63528 34.6512 5.9524 34.792C6.26952 34.9328 6.63624 35.005 7.0508 35.005C7.46535 35.005 7.82144 34.9346 8.13679 34.792L8.14033 34.7902ZM5.9772 31.6282C6.06578 31.4134 6.19688 31.2496 6.36873 31.137C6.54057 31.0243 6.75139 30.9697 7.00119 30.9697C7.25099 30.9697 7.44763 31.0243 7.61062 31.1334C7.77361 31.2426 7.89762 31.4011 7.97912 31.607C8.02341 31.718 8.0553 31.843 8.07656 31.9785H5.87976C5.90279 31.85 5.93468 31.7338 5.9772 31.6299V31.6282Z" fill="white"/>
<path d="M13.1712 34.243C13.2314 34.1392 13.2792 34.0247 13.3182 33.8997V34.8364H14.4485V31.8644C14.4485 31.4172 14.3599 31.0493 14.181 30.7641C14.0038 30.4788 13.7434 30.264 13.4033 30.1232C13.0613 29.9823 12.6432 29.9102 12.1436 29.9102C11.9718 29.9102 11.7876 29.9137 11.5927 29.919C11.3978 29.9242 11.2065 29.933 11.024 29.9454C10.8397 29.9577 10.6803 29.9683 10.5439 29.9806V31.1743C10.7281 31.162 10.9319 31.1514 11.1586 31.1391C11.3836 31.1267 11.6033 31.1179 11.8177 31.1127C12.032 31.1074 12.2039 31.1039 12.3332 31.1039C12.5936 31.1039 12.7832 31.1655 12.9019 31.2887C13.0206 31.412 13.0791 31.5986 13.0791 31.8451V31.8627H12.1986C11.7663 31.8627 11.3836 31.9173 11.0506 32.0264C10.7175 32.1356 10.4606 32.3028 10.2764 32.53C10.0921 32.7571 10 33.0476 10 33.4015C10 33.7254 10.0744 34.0036 10.2232 34.2378C10.372 34.4702 10.5775 34.6497 10.8415 34.773C11.1055 34.8962 11.412 34.9578 11.7628 34.9578C12.1135 34.9578 12.3864 34.8962 12.622 34.773C12.8558 34.6497 13.0401 34.4719 13.173 34.243H13.1712ZM11.6139 33.7958C11.4811 33.6744 11.4137 33.5177 11.4137 33.3222C11.4137 33.1162 11.4811 32.9525 11.6139 32.831C11.7468 32.7095 11.9381 32.6497 12.1879 32.6497H13.0773V33.0388C13.0649 33.28 13.017 33.4684 12.9356 33.6039C12.8523 33.7395 12.7478 33.8346 12.6202 33.8909C12.4927 33.9473 12.3492 33.9754 12.1879 33.9754C11.9381 33.9754 11.7468 33.9156 11.6139 33.7941V33.7958Z" fill="white"/>
<path d="M17.207 30.4841C16.9855 30.764 16.8473 31.1338 16.7924 31.5933V29.9894H15.6621V34.8346H17.0865V32.3679C17.0865 31.9736 17.1928 31.6707 17.4071 31.4612C17.6215 31.2517 17.9227 31.1478 18.3142 31.1478H18.6703V29.9277H18.4843C17.9262 29.9277 17.501 30.1126 17.207 30.4841Z" fill="white"/>
<path d="M23.5483 30.3915C23.2489 30.0235 22.8148 29.8386 22.2444 29.8386H22.1824C21.8085 29.8386 21.4914 29.9214 21.231 30.0869C20.9706 30.2524 20.7757 30.4989 20.6481 30.8298C20.6021 30.9496 20.5667 31.0851 20.5365 31.2277V29.99H19.4062V34.8353H20.8306V32.0147C20.8306 31.7436 20.9121 31.5235 21.0751 31.3563C21.2381 31.189 21.4525 31.1045 21.72 31.1045C21.9875 31.1045 22.1877 31.1873 22.3436 31.3528C22.4977 31.5182 22.5757 31.7295 22.5757 31.9901V34.837H24V32.0693C24 31.3211 23.8494 30.7629 23.55 30.3932L23.5483 30.3915Z" fill="white"/>
<path d="M4.91089 38.1763C4.62035 37.8752 4.25717 37.6375 3.82136 37.4597C3.38554 37.2836 2.87355 37.1938 2.28714 37.1938H0V43.7293H2.28714C2.87355 43.7293 3.38554 43.6359 3.82136 43.4511C4.25717 43.2662 4.62035 43.0215 4.91089 42.7169C5.20144 42.4141 5.41757 42.0708 5.56107 41.6905C5.7028 41.3102 5.77544 40.9316 5.77544 40.5549V40.3594C5.77544 39.958 5.70457 39.5689 5.56107 39.1921C5.41935 38.8154 5.20144 38.4756 4.91089 38.1745V38.1763ZM4.53354 41.363C4.42902 41.6429 4.27666 41.8859 4.0747 42.0919C3.87273 42.2979 3.63002 42.4581 3.34479 42.5743C3.05957 42.6887 2.73713 42.7468 2.37572 42.7468H1.06828V38.1745H2.37572C2.73713 38.1745 3.06134 38.2291 3.34479 38.3382C3.63002 38.4474 3.87273 38.6023 4.0747 38.8031C4.27666 39.0038 4.42902 39.2414 4.53354 39.5196C4.63807 39.796 4.68944 40.1094 4.68944 40.4563C4.68944 40.7802 4.63807 41.083 4.53354 41.363Z" fill="white"/>
<path d="M10.2358 39.1046C9.89208 38.881 9.46158 38.7683 8.94604 38.7683C8.5492 38.7683 8.20019 38.837 7.90079 38.9761C7.60139 39.1152 7.35336 39.3 7.15849 39.5324C6.96184 39.7648 6.81657 40.0272 6.71736 40.3194C6.61815 40.6117 6.57031 40.9127 6.57031 41.2261V41.3934C6.57031 41.6997 6.61992 41.999 6.71736 42.2913C6.81479 42.5836 6.96184 42.8459 7.15849 43.0783C7.35336 43.3107 7.6067 43.4991 7.91496 43.6399C8.22322 43.7808 8.58463 43.853 9.00096 43.853C9.38717 43.853 9.73086 43.7878 10.0338 43.6593C10.3367 43.529 10.5865 43.3442 10.785 43.1029C10.9834 42.8617 11.1163 42.5783 11.1818 42.2543H10.2127C10.1649 42.4498 10.0356 42.6188 9.82121 42.7631C9.60685 42.9075 9.33402 42.9797 9.00273 42.9797C8.67144 42.9797 8.39684 42.9075 8.18425 42.7631C7.96988 42.6188 7.81398 42.4216 7.713 42.1698C7.63682 41.9814 7.58899 41.7737 7.57127 41.5466H11.2722V41.1311C11.2722 40.7191 11.1853 40.3335 11.0135 39.9779C10.8417 39.6204 10.583 39.3317 10.2393 39.1063L10.2358 39.1046ZM8.17185 39.8564C8.37912 39.7155 8.63778 39.6433 8.94604 39.6433C9.2543 39.6433 9.48815 39.7067 9.6848 39.8335C9.87967 39.9602 10.0285 40.1398 10.1295 40.3722C10.1915 40.5131 10.2305 40.6733 10.2553 40.8458H7.59607C7.62088 40.6997 7.65985 40.5641 7.70946 40.4391C7.81044 40.1909 7.96457 39.9972 8.17185 39.8546V39.8564Z" fill="white"/>
<path d="M14.3114 42.8539H14.1058L12.8604 38.9277H11.7744L13.3405 43.6937H13.6346H14.0793H14.3716H14.8003H15.0483L16.4107 38.9277H15.3956L14.3114 42.8539Z" fill="white"/>
</svg>
